<svg xmlns="http://www.w3.org/2000/svg" xml:space="preserve" style="fill-rule:evenodd;clip-rule:evenodd;stroke-linejoin:round;stroke-miterlimit:2" viewBox="0 0 400 40"><path d="M45.11 17.24c-.05-3.15-.48-5.71-1-8.26-.25-1.25-.8-2.26-1.9-3.06-1.29-.93-1.69-2.28-.95-3.77.41-.83 1.17-1.32 2.12-1.24.96.08 1.35.86 1.51 1.66.14.72.15 1.48.09 2.21-.49 5.45 1.72 10.23 3.8 15.03.19.43.6.79.96 1.13.4.37.86.86 1.46.52s.6-1.04.62-1.66c.02-.66-.29-1.14-.95-1.13-1.74.04-1.43-1.15-1.39-2.18.03-.66.29-1.28.92-1.49.74-.25 1.1.42 1.42.93.49.79.85 1.65 1.38 2.41.94 1.34 2.07 1.45 3.03.18 1.61-2.12 2.98-4.39 3.83-6.96.39-1.2-.02-2.32-.07-3.48-.05-1.02-.28-2.23.89-2.81.9-.46 1.69.12 2.33.74.91.89 1 1.97.42 3.07-.37.71-.82 1.39-1.29 2.04-2.71 3.74-4.19 7.84-3.83 12.5.04.52 0 1.1 0 1.49.02 3.28.09 3.55-.17 3.89-.37.49-.87.45-3.83.61-3.16.17-2.69.22-4.54.28-1.52.05-3.04.06-4.56.02s-3.04-.13-4.56-.28c-1.31-.13-2.61-.3-3.9-.52-.03 0-.07-.01-.09-.03a.2.2 0 0 1-.05-.08c-.2-.54-.4-1.09-.58-1.64-.93-2.88-2.2-5.64-3.59-8.33-.63-1.22-1.3-2.36-2.46-3.2-.89-.64-1.45-1.57-1.23-2.73.12-.66.25-1.44 1.08-1.56.85-.12 1.17.6 1.42 1.23.29.75.41 1.55.35 2.37-.08 1.08.4 1.91 1.13 2.64 2.07 2.06 3.82 1.84 5.11-.77 1.2-2.42 1.99-4.92.89-7.66-.53-1.33-.36-2.68.58-3.85.27-.34.67-.4.98-.09 1.01 1.05 1.1 2.33.73 3.64-1.07 3.86-.79 7.72-.03 11.58.08.42.21.84.34 1.25.21.68.52 1.3 1.37 1.28.78-.01 1.26-.52 1.56-1.16.78-1.69.64-3.5.65-4.76" style="fill:#1c2e5b;fill-rule:nonzero" transform="scale(.92166 .93023)"/><path d="M44.25 17.48c-.2.58-.69 1.47-1.29 1.47-.51 0-.97-1.2-.93-1.99.03-.69.35-1.41 1.21-1.28s1.17.79 1.01 1.79zm9.96-5.16c.07-.91.37-1.55 1.23-1.4.72.12 1.24.71 1.04 1.48-.19.72-.66 1.73-1.29 1.73s-1.06-1.31-.98-1.81M34.17 9.81c.02-.82.15-1.54 1.02-1.59.8-.04 1.25.49 1.23 1.3-.03.83-.6 1.96-1.06 1.96-.63 0-1-1.02-1.19-1.67m5.62-8.23c-.2.62-.65 1.61-1.23 1.61-.47 0-1-1.16-1.01-1.95-.01-.73.33-1.32 1.23-1.24.88.09 1.08.67 1 1.57zm44.57 21.56s10.92 2.29 11.94 6.74c1.44 6.3-21.16 11.23-47.4 11.23s-47.32-4-47.32-10.46c0-2.62 1.13-3.71 8.81-6.82 0 0-11.06 2.18-10.36 7.46 1.5 8.8 22.29 11.65 49.29 11.65s47.55-2.61 48.46-11.65c.36-3.54-5.38-7.07-13.41-8.15z" style="fill:#1c2e5b;fill-rule:nonzero" transform="scale(.92166 .93023)"/><path d="M73.86 24.79s7.24 1.03 8.02 4.42C82.98 34.02 66.67 37 46.64 37S11.3 34.21 11.3 29.28c0-2 1.15-2.12 7.01-4.49 0 0-9.49 1.27-8.95 5.3 1.15 6.71 16.69 9.42 37.29 9.42s36.59-2.52 37.29-9.42c.27-2.7-3.95-4.48-10.07-5.3z" style="fill:#1c2e5b;fill-rule:nonzero" transform="scale(.92166 .93023)"/><path d="M68.67 25.74s2.18.37 2.87 1.74c1.07 2.14-9.2 4.8-23.24 4.39-16.56-.48-22.69-1.33-24.12-3.99-.42-.77.64-1.24 2.04-2.23 0 0-5.13.22-4.75 3.04.78 4.06 11.93 6.49 26.38 6.49s27.7-2.24 26.26-6.89c-.45-1.46-1.12-2-5.42-2.57z" style="fill:#1c2e5b;fill-rule:nonzero" transform="scale(.92166 .93023)"/><path d="M109.05 32.68c-3.29-2.89-4.17-6.65-4.17-9.91 0-1.458.288-3.593 1.328-5.716a11.7 11.7 0 0 1 2.602-3.494c2.42-2.22 5.61-3.56 10.62-3.56 2.08 0 3.33.13 4.87.34 1.28.17 2.35.47 3.36.57.37.03.5.2.5.4 0 .27-.1.67-.17 1.85-.07 1.11-.03 2.96-.1 3.63-.03.5-.1.77-.4.77-.27 0-.34-.27-.34-.74a4.77 4.77 0 0 0-1.31-3.09c-1.11-1.18-3.73-2.08-6.82-2.08-2.92 0-4.84.74-6.32 2.08-2.45 2.25-3.09 5.44-3.09 8.7 0 1.969.368 3.693.991 5.173 1.906 4.536 6.199 6.787 9.599 6.787 2.99 0 4.81-.34 6.15-1.88.57-.64 1.01-1.61 1.14-2.22.1-.54.17-.67.44-.67.23 0 .3.23.3.5 0 .4-.4 3.33-.74 4.47-.17.57-.3.74-.87.97-1.34.54-3.9.77-6.05.77-4.6 0-8.47-1.01-11.53-3.66zm29.13-5.11c0 3.66 0 5.63.6 6.15.49.43 1.23.63 3.46.63 1.52 0 2.63-.03 3.34-.8.34-.37.69-1.17.74-1.71.03-.26.09-.43.31-.43.2 0 .23.14.23.49 0 .31-.2 2.46-.43 3.29-.17.63-.31.77-1.8.77-2.06 0-3.55-.06-4.83-.09a73 73 0 0 0-3.49-.09c-.31 0-.94 0-1.63.03-.66 0-1.4.06-1.97.06-.37 0-.57-.09-.57-.29 0-.14.11-.23.46-.23.43 0 .77-.06 1.03-.11.57-.11.71-.74.83-1.57.14-1.2.14-3.46.14-6.09v-5.03c0-4.35 0-5.15-.06-6.06-.06-.97-.29-1.43-1.23-1.63-.23-.06-.57-.09-.94-.09-.31 0-.49-.06-.49-.26s.2-.26.63-.26c1.34 0 3.14.09 3.92.09.69 0 2.77-.09 3.89-.09.4 0 .6.06.6.26s-.17.26-.51.26c-.31 0-.77.03-1.12.09-.77.14-1 .63-1.06 1.63-.06.91-.06 1.71-.06 6.06v5.03zm14.58-5.03c0-4.35 0-5.15-.06-6.06-.06-.97-.29-1.43-1.23-1.63-.23-.06-.72-.09-1.12-.09-.31 0-.49-.06-.49-.26s.2-.26.63-.26c.77 0 1.6.03 2.32.03.74.03 1.4.06 1.8.06.91 0 6.6 0 7.15-.03.54-.06 1-.11 1.23-.17.14-.03.31-.11.46-.11s.17.11.17.26c0 .2-.14.54-.23 1.86-.03.29-.09 1.54-.14 1.89-.03.14-.09.32-.29.32s-.26-.14-.26-.4c0-.2-.03-.69-.17-1.03-.2-.52-.49-.86-1.92-1.03-.49-.06-3.49-.11-4.06-.11-.14 0-.2.09-.2.29v7.23c0 .2.03.32.2.32.63 0 3.92 0 4.57-.06.69-.06 1.12-.14 1.37-.43.2-.23.31-.37.46-.37.11 0 .2.06.2.23s-.11.63-.23 2.09c-.03.57-.11 1.72-.11 1.92 0 .23 0 .54-.26.54-.2 0-.26-.11-.26-.26-.03-.29-.03-.66-.11-1.03-.14-.57-.54-1-1.6-1.12-.54-.06-3.37-.09-4.06-.09-.14 0-.17.11-.17.29v2.26c0 .97-.03 3.6 0 4.43.06 1.97.51 2.4 3.43 2.4.74 0 1.94 0 2.69-.34.74-.34 1.09-.94 1.29-2.12.06-.31.11-.43.31-.43.23 0 .23.23.23.52 0 .66-.23 2.6-.37 3.17-.2.74-.46.74-1.54.74-2.14 0-3.72-.06-4.95-.09-1.23-.06-2.12-.09-2.97-.09-.31 0-.94 0-1.63.03-.66 0-1.4.06-1.97.06-.37 0-.57-.09-.57-.29 0-.14.11-.23.46-.23.43 0 .77-.06 1.03-.11.57-.11.71-.74.83-1.57.14-1.2.14-3.46.14-6.09zm20.07 5.86c-.14 0-.2.06-.26.23l-1.54 4.09c-.29.71-.43 1.4-.43 1.74 0 .51.26.89 1.14.89h.43c.34 0 .43.06.43.23 0 .23-.17.29-.49.29-.91 0-2.14-.09-3.03-.09-.31 0-1.89.09-3.37.09-.37 0-.54-.06-.54-.29 0-.17.11-.23.34-.23.26 0 .66-.03.89-.06 1.31-.17 1.86-1.14 2.43-2.57l7.18-17.95c.34-.83.51-1.14.8-1.14.26 0 .43.26.71.91.69 1.57 5.26 13.24 7.09 17.58 1.09 2.57 1.92 2.97 2.52 3.12.43.09.86.11 1.2.11.23 0 .37.03.37.23 0 .23-.26.29-1.32.29s-3.12 0-5.4-.06c-.51-.03-.86-.03-.86-.23 0-.17.11-.23.4-.26.2-.06.4-.31.26-.66l-2.29-6.06c-.06-.14-.14-.2-.29-.2h-6.38zm5.83-1.43c.14 0 .17-.09.14-.17l-2.57-7.06c-.03-.11-.06-.26-.14-.26s-.14.14-.17.26l-2.63 7.03c-.03.11 0 .2.11.2zm14.96-4.43c0-4.35 0-5.15-.06-6.06-.06-.97-.29-1.43-1.23-1.63-.23-.06-.72-.09-1.12-.09-.31 0-.49-.06-.49-.26s.2-.26.63-.26c1.52 0 3.32.09 3.92.09.97 0 3.15-.09 4.03-.09 1.8 0 3.72.17 5.26 1.23.8.54 1.94 2 1.94 3.92 0 2.12-.89 4.06-3.77 6.4 2.54 3.2 4.52 5.75 6.2 7.52 1.6 1.66 2.77 1.86 3.2 1.94.31.06.57.09.8.09s.34.09.34.23c0 .23-.2.29-.54.29h-2.72c-1.6 0-2.32-.14-3.06-.54-1.23-.66-2.32-2-3.92-4.2-1.14-1.57-2.46-3.52-2.83-3.95-.14-.17-.31-.2-.51-.2l-2.49-.06c-.14 0-.23.06-.23.23v.4c0 2.66 0 4.92.14 6.12.09.83.26 1.46 1.11 1.57.43.06 1.06.11 1.4.11.23 0 .34.09.34.23 0 .2-.2.29-.57.29-1.66 0-3.77-.09-4.2-.09-.54 0-2.34.09-3.49.09-.37 0-.57-.09-.57-.29 0-.14.11-.23.46-.23.43 0 .77-.06 1.03-.11.57-.11.71-.74.83-1.57.14-1.2.14-3.46.14-6.09v-5.03zm3.37 2.26c0 .31.06.43.26.51.6.2 1.46.29 2.17.29 1.14 0 1.52-.11 2.03-.49.86-.63 1.69-1.94 1.69-4.29 0-4.06-2.69-5.23-4.37-5.23-.71 0-1.23.03-1.52.11-.2.06-.26.17-.26.4zm17.04-7.75c-.34-1.06-.66-1.74-1.06-2.03-.31-.2-.89-.26-1.14-.26-.29 0-.46-.03-.46-.26 0-.2.23-.26.63-.26 1.49 0 3.06.09 3.32.09s1.52-.09 3.17-.09c.4 0 .6.09.6.26 0 .23-.23.26-.51.26-.23 0-.51 0-.71.11-.26.11-.31.31-.31.63 0 .37.29 1.34.63 2.63.49 1.89 3.15 10.55 3.66 12.15h.09l5.55-14.89c.29-.8.49-1.03.71-1.03.32 0 .46.43.83 1.34l5.95 14.38h.09c.51-1.92 2.8-9.46 3.8-12.81.2-.66.29-1.26.29-1.66 0-.46-.26-.86-1.37-.86-.29 0-.49-.09-.49-.26 0-.2.23-.26.66-.26 1.52 0 2.72.09 2.97.09.2 0 1.43-.09 2.37-.09.32 0 .51.06.51.23 0 .2-.14.29-.4.29-.29 0-.69.03-1 .14-.69.26-1 1.4-1.6 3.03-1.31 3.6-4.32 12.69-5.72 16.98-.31 1-.46 1.34-.83 1.34-.29 0-.46-.34-.89-1.4l-5.95-14.32h-.06c-.54 1.46-4.35 11.58-5.58 14.21-.54 1.17-.69 1.51-1.03 1.51-.29 0-.4-.31-.66-1.06l-6.06-18.15zm34.42 5.49c0-4.35 0-5.15-.06-6.06-.06-.97-.29-1.43-1.23-1.63-.23-.06-.71-.09-1.12-.09-.31 0-.49-.06-.49-.26s.2-.26.63-.26c.77 0 1.6.03 2.32.03.74.03 1.4.06 1.8.06.91 0 6.6 0 7.15-.03.54-.06 1-.11 1.23-.17.14-.03.32-.11.46-.11s.17.11.17.26c0 .2-.14.54-.23 1.86-.03.29-.09 1.54-.14 1.89-.03.14-.09.32-.29.32s-.26-.14-.26-.4c0-.2-.03-.69-.17-1.03-.2-.52-.49-.86-1.92-1.03-.49-.06-3.49-.11-4.06-.11-.14 0-.2.09-.2.29v7.23c0 .2.03.32.2.32.63 0 3.92 0 4.57-.06.69-.06 1.12-.14 1.37-.43.2-.23.31-.37.46-.37.11 0 .2.06.2.23s-.11.63-.23 2.09c-.03.57-.11 1.72-.11 1.92 0 .23 0 .54-.26.54-.2 0-.26-.11-.26-.26-.03-.29-.03-.66-.11-1.03-.14-.57-.54-1-1.6-1.12-.54-.06-3.37-.09-4.06-.09-.14 0-.17.11-.17.29v2.26c0 .97-.03 3.6 0 4.43.06 1.97.51 2.4 3.43 2.4.74 0 1.94 0 2.69-.34.74-.34 1.09-.94 1.29-2.12.06-.31.11-.43.31-.43.23 0 .23.23.23.52 0 .66-.23 2.6-.37 3.17-.2.74-.46.74-1.54.74-2.14 0-3.72-.06-4.95-.09-1.23-.06-2.12-.09-2.97-.09-.31 0-.94 0-1.63.03-.66 0-1.4.06-1.97.06-.37 0-.57-.09-.57-.29 0-.14.11-.23.46-.23.43 0 .77-.06 1.03-.11.57-.11.71-.74.83-1.57.14-1.2.14-3.46.14-6.09zm21.07 5.03c0 3.66 0 5.63.6 6.15.49.43 1.23.63 3.46.63 1.51 0 2.63-.03 3.34-.8.34-.37.69-1.17.74-1.71.03-.26.09-.43.31-.43.2 0 .23.14.23.49 0 .31-.2 2.46-.43 3.29-.17.63-.31.77-1.8.77-2.06 0-3.54-.06-4.83-.09a73 73 0 0 0-3.49-.09c-.31 0-.94 0-1.63.03-.66 0-1.4.06-1.97.06-.37 0-.57-.09-.57-.29 0-.14.11-.23.46-.23.43 0 .77-.06 1.03-.11.57-.11.71-.74.83-1.57.14-1.2.14-3.46.14-6.09v-5.03c0-4.35 0-5.15-.06-6.06-.06-.97-.29-1.43-1.23-1.63-.23-.06-.57-.09-.94-.09-.32 0-.49-.06-.49-.26s.2-.26.63-.26c1.34 0 3.15.09 3.92.09.69 0 2.77-.09 3.89-.09.4 0 .6.06.6.26s-.17.26-.51.26c-.32 0-.77.03-1.12.09-.77.14-1 .63-1.06 1.63-.06.91-.06 1.71-.06 6.06v5.03zm16.49 0c0 3.66 0 5.63.6 6.15.49.43 1.23.63 3.46.63 1.52 0 2.63-.03 3.35-.8.34-.37.69-1.17.74-1.71.03-.26.09-.43.31-.43.2 0 .23.14.23.49 0 .31-.2 2.46-.43 3.29-.17.63-.31.77-1.8.77-2.06 0-3.54-.06-4.83-.09a73 73 0 0 0-3.49-.09c-.31 0-.94 0-1.63.03-.66 0-1.4.06-1.97.06-.37 0-.57-.09-.57-.29 0-.14.11-.23.46-.23.43 0 .77-.06 1.03-.11.57-.11.71-.74.83-1.57.14-1.2.14-3.46.14-6.09v-5.03c0-4.35 0-5.15-.06-6.06-.06-.97-.29-1.43-1.23-1.63-.23-.06-.57-.09-.94-.09-.32 0-.49-.06-.49-.26s.2-.26.63-.26c1.34 0 3.15.09 3.92.09.69 0 2.77-.09 3.89-.09.4 0 .6.06.6.26s-.17.26-.51.26c-.31 0-.77.03-1.12.09-.77.14-1 .63-1.06 1.63-.06.91-.06 1.71-.06 6.06v5.03zm52.7 6.05c0 .91-.03.97-.44 1.21-2.18 1.14-5.48 1.51-8.1 1.51-8.23 0-15.53-3.9-15.53-13.17 0-5.38 2.79-9.14 5.85-10.99 3.23-1.95 6.22-2.18 9.04-2.18 2.32 0 5.28.4 5.95.54.71.13 1.88.34 2.66.37.4.03.47.17.47.4 0 .37-.23 1.31-.23 5.51 0 .54-.1.71-.37.71-.24 0-.3-.17-.34-.44-.1-.77-.27-1.85-1.14-2.79-1.01-1.08-3.7-2.62-7.49-2.62-1.85 0-4.3.13-6.65 2.08-1.88 1.58-3.09 4.1-3.09 8.23 0 7.23 4.6 12.64 11.7 12.64.87 0 2.05 0 2.86-.37.5-.23.64-.67.64-1.24v-3.16c0-1.68 0-2.96-.03-3.97-.03-1.14-.34-1.68-1.44-1.92-.27-.07-.84-.1-1.31-.1-.3 0-.5-.07-.5-.27 0-.27.24-.34.71-.34 1.75 0 3.86.1 4.87.1s2.82-.1 3.93-.1c.44 0 .67.07.67.34 0 .2-.2.27-.44.27-.27 0-.5.03-.91.1-.91.17-1.24.74-1.28 1.92-.03 1.01-.03 2.35-.03 4.03v3.7zm8.58-11.08c0-4.35 0-5.15-.06-6.06-.06-.97-.29-1.43-1.23-1.63-.23-.06-.71-.09-1.12-.09-.31 0-.49-.06-.49-.26s.2-.26.63-.26c1.51 0 3.32.09 3.92.09.97 0 3.15-.09 4.03-.09 1.8 0 3.72.17 5.26 1.23.8.54 1.94 2 1.94 3.92 0 2.12-.89 4.06-3.77 6.4 2.55 3.2 4.52 5.75 6.2 7.52 1.6 1.66 2.77 1.86 3.2 1.94.31.06.57.09.8.09s.34.09.34.23c0 .23-.2.29-.54.29h-2.72c-1.6 0-2.32-.14-3.06-.54-1.23-.66-2.32-2-3.92-4.2-1.14-1.57-2.46-3.52-2.83-3.95-.14-.17-.31-.2-.51-.2l-2.49-.06c-.14 0-.23.06-.23.23v.4c0 2.66 0 4.92.14 6.12.09.83.26 1.46 1.12 1.57.43.06 1.06.11 1.4.11.23 0 .34.09.34.23 0 .2-.2.29-.57.29-1.66 0-3.77-.09-4.2-.09-.54 0-2.35.09-3.49.09-.37 0-.57-.09-.57-.29 0-.14.11-.23.46-.23.43 0 .77-.06 1.03-.11.57-.11.71-.74.83-1.57.14-1.2.14-3.46.14-6.09v-5.03zm3.37 2.26c0 .31.06.43.26.51.6.2 1.46.29 2.17.29 1.14 0 1.51-.11 2.03-.49.86-.63 1.69-1.94 1.69-4.29 0-4.06-2.69-5.23-4.37-5.23-.71 0-1.23.03-1.52.11-.2.06-.26.17-.26.4zm16.42.25c0-4.89 3.23-11.21 11.81-11.21 7.12 0 11.55 4.15 11.55 10.69s-4.57 11.72-11.84 11.72c-8.21 0-11.52-6.15-11.52-11.21zm19.36.54c0-6.4-3.69-10.38-8.38-10.38-3.29 0-7.03 1.83-7.03 8.95 0 5.95 3.29 10.66 8.78 10.66 2 0 6.63-.97 6.63-9.23m9.03-3.05c0-4.35 0-5.15-.06-6.06-.06-.97-.29-1.43-1.23-1.63-.23-.06-.71-.09-1.11-.09-.32 0-.49-.06-.49-.26s.2-.26.63-.26c1.52 0 3.32.09 4.17.09.69 0 2.49-.09 3.52-.09.43 0 .63.06.63.26s-.17.26-.46.26c-.32 0-.49.03-.83.09-.77.14-1 .63-1.06 1.63-.06.91-.06 1.71-.06 6.06v4c0 4.15.83 5.89 2.23 7.03 1.29 1.06 2.6 1.17 3.57 1.17 1.26 0 2.8-.4 3.95-1.54 1.57-1.57 1.66-4.15 1.66-7.09v-3.57c0-4.35 0-5.15-.06-6.06-.06-.97-.29-1.43-1.23-1.63-.23-.06-.71-.09-1.03-.09s-.49-.06-.49-.26.2-.26.6-.26c1.46 0 3.26.09 3.29.09.34 0 2.14-.09 3.26-.09.4 0 .6.06.6.26s-.17.26-.52.26c-.31 0-.49.03-.83.09-.77.14-1 .63-1.06 1.63-.06.91-.06 1.71-.06 6.06v3.06c0 3.17-.31 6.55-2.72 8.6-2.03 1.74-4.09 2.06-5.95 2.06-1.52 0-4.26-.09-6.35-1.97-1.46-1.32-2.54-3.43-2.54-7.58v-4.17zm25.58 0c0-4.35 0-5.15-.06-6.06-.06-.97-.29-1.43-1.23-1.63-.23-.06-.71-.09-1.12-.09-.31 0-.49-.06-.49-.26s.2-.26.63-.26c1.51 0 3.32.09 4.12.09 1.17 0 2.83-.09 4.15-.09 3.57 0 4.86 1.2 5.32 1.63.63.6 1.43 1.89 1.43 3.4 0 4.06-2.97 6.92-7.03 6.92-.14 0-.46 0-.6-.03s-.34-.06-.34-.26c0-.23.2-.31.8-.31 1.6 0 3.83-1.8 3.83-4.72 0-.94-.09-2.86-1.69-4.29a4.27 4.27 0 0 0-2.86-1.12c-.43 0-.86.03-1.12.11-.14.06-.23.23-.23.54v11.44c0 2.63 0 4.89.14 6.12.09.8.26 1.43 1.11 1.54.4.06 1.03.11 1.46.11.31 0 .46.09.46.23 0 .2-.23.29-.54.29-1.89 0-3.69-.09-4.43-.09-.66 0-2.46.09-3.6.09-.37 0-.57-.09-.57-.29 0-.14.11-.23.46-.23.43 0 .77-.06 1.03-.11.57-.11.71-.74.83-1.57.14-1.2.14-3.46.14-6.09v-5.03zm-375.94-5.3c-.05-3.15-.48-5.71-1-8.26-.25-1.25-.8-2.26-1.9-3.06-1.29-.93-1.69-2.28-.95-3.77.41-.83 1.17-1.32 2.12-1.24.96.08 1.35.86 1.51 1.66.14.72.15 1.48.09 2.21-.49 5.45 1.72 10.23 3.8 15.03.19.43.6.79.96 1.13.4.37.86.86 1.46.52s.6-1.04.62-1.66c.02-.66-.29-1.14-.95-1.13-1.74.04-1.43-1.15-1.39-2.18.03-.66.29-1.28.92-1.49.74-.25 1.1.42 1.42.93.49.79.85 1.65 1.38 2.41.94 1.34 2.07 1.45 3.03.18 1.61-2.12 2.98-4.39 3.83-6.96.39-1.2-.02-2.32-.07-3.48-.05-1.02-.28-2.23.89-2.81.9-.46 1.69.12 2.33.74.91.89 1 1.97.42 3.07-.37.71-.82 1.39-1.29 2.04-2.71 3.74-4.19 7.84-3.83 12.5.04.52 0 1.1 0 1.49.02 3.28.09 3.55-.17 3.89-.37.49-.87.45-3.83.61-3.16.17-2.69.22-4.54.28-1.52.05-3.04.06-4.56.02s-3.04-.13-4.56-.28c-1.31-.13-2.61-.3-3.9-.52-.03 0-.07-.01-.09-.03a.2.2 0 0 1-.05-.08c-.2-.54-.4-1.09-.58-1.64-.93-2.88-2.2-5.64-3.59-8.33-.63-1.22-1.3-2.36-2.46-3.2-.89-.64-1.45-1.57-1.23-2.73.12-.66.25-1.44 1.08-1.56.85-.12 1.17.6 1.42 1.23.29.75.41 1.55.35 2.37-.08 1.08.4 1.91 1.13 2.64 2.07 2.06 3.82 1.84 5.11-.77 1.2-2.42 1.99-4.92.89-7.66-.53-1.33-.36-2.68.58-3.85.27-.34.67-.4.98-.09 1.01 1.05 1.1 2.33.73 3.64-1.07 3.86-.79 7.72-.03 11.58.08.42.21.84.34 1.25.21.68.52 1.3 1.37 1.28.78-.01 1.26-.52 1.56-1.16.78-1.69.64-3.5.65-4.76" style="fill:#1c2e5b;fill-rule:nonzero" transform="scale(.92166 .93023)"/></svg>