<?xml version="1.0" encoding="UTF-8"?>
<svg id="LOGO" xmlns="http://www.w3.org/2000/svg" viewBox="0 0 456.33 223.46">
  <defs>
    <style>
      .cls-1 {
        fill: #a95153;
      }

      .cls-1, .cls-2 {
        fill-rule: evenodd;
      }

      .cls-3, .cls-2 {
        fill: #828386;
      }
    </style>
  </defs>
  <path class="cls-3" d="M58.4,188.13c0,7.63-2.5,13.98-7.48,19-2.44,2.45-5.4,4.36-8.86,5.72-3.73,1.47-8.07,2.14-13.04,2.06l-11.93-.2c-3.25-.05-5.93.03-8.05.2l-.34-.34v-.95l.18-.4c1.66-1.07,2.57-1.74,2.7-1.99.2-.42.33-1.91.38-4.5l.1-7.58v-17.14c0-5.37-.14-8.86-.45-10.49-.1-.65-.49-1.07-1.14-1.26-.35-.08-1.66-.2-3.97-.33l-.33-.34v-2.3l.33-.3c2.39.12,4.68.2,6.84.2,5.25,0,9.98-.07,14.2-.2,2.11-.07,4.21-.11,6.34-.11,5.86,0,10.37.67,13.5,1.99,3.42,1.47,6.1,3.76,8.05,6.9,1.98,3.23,2.98,7.34,2.98,12.35M48.01,189.74c0-6.25-1.5-11.05-4.53-14.41-1.57-1.76-3.55-3-5.92-3.72-2.25-.68-5.39-1.01-9.43-1.01-2.09,0-4.1.14-6.02.43-.23,2.53-.34,8.65-.34,18.35l.07,14.78c.03,3.28.12,5.47.27,6.55,1.98.32,4.01.48,6.09.48,4.49,0,8.03-.65,10.62-1.96,2.79-1.41,5-3.83,6.65-7.23,1.7-3.52,2.54-7.61,2.54-12.26"/>
  <path class="cls-3" d="M105.87,214.58l-.35.33c-.16,0-.58-.01-1.29-.03-3.09-.11-5.02-.17-5.79-.17-1.14,0-2.98.07-5.47.2-.1-.54-.52-1.45-1.28-2.69l-8.4-14.02-3.76-5.71c-.48-.69-1.14-1.39-1.99-2.07l.37-1.15c.52.03.9.04,1.14.04,2.21,0,3.95-.35,5.21-1.05,1.16-.64,2.21-1.74,3.19-3.33.97-1.57,1.45-3.45,1.45-5.64,0-3.81-1.42-6.37-4.26-7.7-1.35-.64-3.31-.95-5.92-.95-1.13,0-2.21.08-3.25.27-.23,2.21-.34,5.98-.34,11.3v17.68c0,5.37.15,8.86.44,10.49.12.65.49,1.08,1.16,1.26.33.08,1.64.2,3.95.33l.33.35v2.26l-.31.33c-2.25-.13-5.73-.2-10.42-.2s-8.31.07-10.42.2l-.33-.3v-2.3l.33-.35c2.31-.13,3.62-.24,3.97-.33.65-.19,1.04-.61,1.14-1.26.3-1.63.45-5.12.45-10.49v-17.88c0-5.37-.15-8.86-.45-10.49-.1-.65-.49-1.06-1.14-1.25-.35-.09-1.66-.21-3.97-.33l-.33-.35v-2.29l.33-.31c2.22.13,5.69.2,10.42.2,2.76,0,4.99-.03,6.7-.1,3.4-.14,5.96-.21,7.65-.21,3.9,0,6.77.35,8.59,1.05,2.47.94,4.11,2.55,4.95,4.8.4,1.11.6,2.42.6,3.92,0,6.13-3.45,10.5-10.35,13.06,1.13,1.89,2.32,3.81,3.58,5.74l5.21,8.02c3.06,4.73,5.11,7.44,6.12,8.08.52.33,1.24.5,2.17.5l.35.35v2.16Z"/>
  <path class="cls-3" d="M159.08,214.58l-.3.33c-5.01-.13-8.04-.2-9.07-.2-4.15,0-8.01.08-11.58.2l-.3-.33v-2.13l.33-.38,2.94-.17c1.24-.06,1.86-.5,1.86-1.31,0-.47-.31-1.53-.94-3.17l-2.74-7.15c-3.12-.04-6.29-.05-9.54-.05-1.76,0-4.37.01-7.85.05l-1.49,4.13c-1.13,3.13-1.69,5.1-1.69,5.89,0,.85.52,1.36,1.59,1.52.58.1,1.73.19,3.45.27l.33.35v2.16l-.33.33c-4.17-.13-6.85-.2-8.05-.2-.92,0-3.22.08-6.87.2l-.33-.3v-2.2l.38-.35c2.32-.13,3.74-.59,4.27-1.38.54-.8,2.53-5.48,5.98-14.1l8.84-22.1c.65-1.71,1.64-4.29,2.97-7.74h4.81l17.92,42.17c.7,1.6,1.33,2.51,1.89,2.72.75.25,1.82.4,3.22.4l.3.37v2.16ZM137.64,196.38l-7.25-17.72-6.92,17.72c1.85.06,4.24.1,7.2.1s5.18-.04,6.97-.1"/>
  <path class="cls-3" d="M205.52,197.63l-.35.37c-1.4.35-2.21.81-2.43,1.4-.23.6-.34,2.88-.34,6.85,0,1.92.09,3.81.28,5.69-7.54,2.84-14.37,4.26-20.5,4.26-8.09,0-14.62-2.27-19.62-6.79-4.99-4.52-7.49-10.68-7.49-18.49,0-10.16,4.42-17.42,13.24-21.75,4.03-1.97,9.16-2.97,15.39-2.97,3.61,0,7.26.39,10.95,1.19,3.04.64,5.45,1.4,7.22,2.24l.3.6c-.59,1.98-1.07,5.44-1.45,10.35l-.38.35h-2.02l-.35-.35c0-.43-.04-1.31-.13-2.66-.1-1.34-.2-2.28-.35-2.83-.98-1.34-2.68-2.49-5.06-3.45-2.57-.98-5.35-1.49-8.33-1.49-7.98,0-13.49,3.23-16.54,9.68-1.4,2.97-2.09,6.43-2.09,10.36,0,6.25,1.66,11.46,5.01,15.58,3.46,4.29,8,6.44,13.55,6.44,2.96,0,5.82-.63,8.56-1.9.16-1.57.25-3.74.25-6.49,0-2.22-.09-3.58-.25-4.05-.13-.36-.56-.63-1.29-.78-.6-.14-2.51-.31-5.71-.51l-.36-.33v-2.13l.36-.35c3.27.1,6.7.13,10.29.1,2.08-.01,5.17-.04,9.3-.1l.35.35v1.62Z"/>
  <path class="cls-3" d="M260.84,189.71c0,8.33-2.42,14.85-7.27,19.59-4.71,4.6-11.14,6.9-19.31,6.9-7.71,0-13.77-2.16-18.17-6.51-4.39-4.35-6.6-10.38-6.6-18.12,0-10.85,4.14-18.35,12.41-22.53,3.77-1.89,8.42-2.84,13.91-2.84,7.87,0,13.99,2.07,18.36,6.19,4.45,4.2,6.67,9.98,6.67,17.32M250.43,191.48c0-6.54-1.32-11.73-3.94-15.58-2.63-3.85-6.48-5.77-11.55-5.77-6.69,0-11.14,3.01-13.33,9.03-1.13,3.09-1.69,6.55-1.69,10.38,0,6.97,1.29,12.47,3.85,16.51,2.67,4.17,6.65,6.27,11.95,6.27,6.43,0,10.73-3.18,12.94-9.52,1.18-3.37,1.77-7.14,1.77-11.33"/>
  <path class="cls-3" d="M314.69,169.58l-.37.35c-2.3.13-3.63.24-3.96.33-.65.19-1.03.6-1.15,1.26-.29,1.63-.44,5.12-.44,10.5v13.72c0,10.13.15,16.73.44,19.79l-.44.3c-2.55-.42-4.48-.72-5.78-.91-6.05-6.78-16.37-19.17-30.96-37.14v22.11c0,5.37.15,8.86.45,10.49.11.65.49,1.07,1.14,1.26.35.09,1.66.2,3.97.34l.33.34v2.3l-.33.3c-2.6-.13-5-.2-7.24-.2-2.6,0-5.2.08-7.81.2l-.34-.3v-2.3l.34-.34c2.3-.14,3.61-.25,3.96-.34.65-.18,1.04-.6,1.15-1.26.29-1.63.44-5.12.44-10.49v-17.88c0-5.38-.15-8.87-.44-10.5-.11-.65-.5-1.07-1.15-1.26-.35-.08-1.66-.2-3.96-.33l-.34-.35v-2.3l.34-.3c2.14.13,4.19.2,6.13.2,3.04,0,5.56-.07,7.57-.2,8.11,10.83,17.65,22.43,28.62,34.81v-19.78c0-5.38-.14-8.87-.45-10.5-.11-.65-.49-1.07-1.14-1.26-.34-.08-1.66-.2-3.97-.33l-.33-.35v-2.3l.33-.3c2.53.13,4.93.2,7.22.2,2.9,0,5.51-.07,7.84-.2l.35.3v2.3Z"/>
  <path class="cls-3" d="M356.32,203.41c-.49,3.28-.74,7.02-.74,11.17l-.35.34-24.57-.2c-4.12,0-7.02.06-8.71.2l-.33-.34v-.95l.18-.4c1.66-1.07,2.57-1.74,2.69-1.99.21-.43.33-1.93.38-4.5l.11-7.58v-17.14c0-5.37-.15-8.86-.45-10.49-.11-.65-.49-1.07-1.14-1.26-.35-.08-1.66-.2-3.97-.33l-.33-.34v-2.3l.33-.3c2.27.12,5.8.2,10.56.2,4.23,0,12.3-.07,24.18-.2l.38.27-.43,3.76c-.15,1.2-.25,2.21-.31,3.04l-.24,3.15-.33.37h-1.96l-.34-.35c-.02-3.06-.2-4.8-.54-5.24-.24-.31-1.45-.56-3.63-.75-2.19-.17-4.09-.26-5.73-.26-1.97,0-3.96.07-5.96.23-.24,2.37-.38,5.65-.38,9.85v7c1.79.11,3.23.17,4.33.17l4.45-.04c2.06-.02,3.25-.19,3.5-.51.37-.4.61-1.91.71-4.56l.35-.35h2.09l.34.35c-.1,2.53-.14,4.84-.14,6.93,0,2.28.04,4.77.14,7.48l-.34.3h-2.26l-.33-.33c0-2.6-.18-4.13-.55-4.62-.36-.48-1.45-.81-3.27-.97-1.37-.11-2.84-.16-4.4-.16-1.64,0-3.17.04-4.6.16v10.32c0,2.96.05,5.82.18,8.59h4.6c6.58,0,10.63-.26,12.11-.76.24-.11.43-.22.55-.38.21-.32.43-1,.63-2.04l.81-4.18.34-.38h2.07l.36.33Z"/>
  <path class="cls-3" d="M398.3,203.41c-.49,3.28-.74,7.02-.74,11.17l-.35.34-24.57-.2c-4.12,0-7.02.06-8.71.2l-.33-.34v-.95l.18-.4c1.66-1.07,2.57-1.74,2.7-1.99.2-.43.32-1.93.37-4.5l.11-7.58v-17.14c0-5.37-.15-8.86-.45-10.49-.11-.65-.49-1.07-1.14-1.26-.35-.08-1.66-.2-3.97-.33l-.33-.34v-2.3l.33-.3c2.28.12,5.8.2,10.56.2,4.23,0,12.3-.07,24.18-.2l.38.27-.43,3.76c-.15,1.2-.24,2.21-.31,3.04l-.24,3.15-.33.37h-1.96l-.35-.35c-.01-3.06-.2-4.8-.53-5.24-.25-.31-1.46-.56-3.63-.75-2.18-.17-4.09-.26-5.73-.26-1.97,0-3.96.07-5.96.23-.25,2.37-.38,5.65-.38,9.85v7c1.79.11,3.23.17,4.32.17l4.45-.04c2.06-.02,3.25-.19,3.51-.51.36-.4.59-1.91.7-4.56l.35-.35h2.09l.34.35c-.09,2.53-.14,4.84-.14,6.93,0,2.28.04,4.77.14,7.48l-.34.3h-2.26l-.33-.33c0-2.6-.18-4.13-.54-4.62-.37-.48-1.47-.81-3.28-.97-1.37-.11-2.84-.16-4.4-.16-1.65,0-3.18.04-4.61.16v10.32c0,2.96.06,5.82.17,8.59h4.6c6.58,0,10.63-.26,12.11-.76.25-.11.43-.22.55-.38.21-.32.43-1,.63-2.04l.81-4.18.35-.38h2.06l.36.33Z"/>
  <path class="cls-3" d="M449.36,214.58l-.34.33c-.16,0-.58-.01-1.28-.03-3.09-.11-5.03-.17-5.79-.17-1.14,0-2.98.07-5.47.2-.11-.54-.52-1.45-1.29-2.69l-8.4-14.02-3.74-5.71c-.48-.69-1.14-1.39-1.99-2.07l.37-1.15c.52.03.89.04,1.15.04,2.21,0,3.95-.35,5.21-1.05,1.16-.64,2.21-1.74,3.2-3.33.96-1.57,1.44-3.45,1.44-5.64,0-3.81-1.41-6.37-4.25-7.7-1.36-.64-3.32-.95-5.92-.95-1.13,0-2.21.08-3.25.27-.24,2.21-.35,5.98-.35,11.3v17.68c0,5.37.16,8.86.45,10.49.11.65.49,1.08,1.16,1.26.33.08,1.64.2,3.95.33l.33.35v2.26l-.3.33c-2.25-.13-5.73-.2-10.43-.2s-8.31.07-10.42.2l-.33-.3v-2.3l.33-.35c2.31-.13,3.62-.24,3.97-.33.65-.19,1.04-.61,1.14-1.26.31-1.63.45-5.12.45-10.49v-17.88c0-5.37-.14-8.86-.45-10.49-.11-.65-.49-1.06-1.14-1.25-.34-.09-1.66-.21-3.97-.33l-.33-.35v-2.29l.33-.31c2.22.13,5.69.2,10.42.2,2.76,0,4.99-.03,6.69-.1,3.4-.14,5.96-.21,7.65-.21,3.9,0,6.76.35,8.58,1.05,2.47.94,4.11,2.55,4.96,4.8.4,1.11.61,2.42.61,3.92,0,6.13-3.46,10.5-10.36,13.06,1.13,1.89,2.32,3.81,3.58,5.74l5.21,8.02c3.06,4.73,5.11,7.44,6.12,8.08.52.33,1.25.5,2.17.5l.34.35v2.16Z"/>
  <path class="cls-2" d="M182.93,21.36c-34.78,22.26-49.39,64.44-38.5,102.27l.67-.87,1.65-1.85.23-.22c-5.62-34.86,9.32-71.45,40.88-91.64,37.79-24.18,86.96-16.9,116.39,15.02.22.23.58.25.81.03.21-.2.24-.53.06-.76-28.13-37.28-81.78-47.83-122.18-21.98M148.02,132.17c1.28,3.21,2.74,6.35,4.39,9.39.14.27.47.37.75.25.27-.13.39-.45.28-.74-1.56-3.74-2.85-7.55-3.87-11.4l-1.12,1.67-.42.83Z"/>
  <path class="cls-1" d="M267.48,62.28c-2.08-.02-6.68.3-7.68.84-8.8,4.7-27.98-8.44-31.06-15.78-1.04-2.2-1.52-6.01-4.72-7.68-.13-.07-.28-.03-.36.08-.09.12-.07.27.03.37.82.83,1.14,2.05.12,3.92-22.75-1.37-50.95-5.41-61.04,29.94-.03.13.03.28.16.34.13.06.3.01.37-.12,12.85-22.28,13.32,2.4,11.3,13.25-.03.14.05.27.19.32.13.04.28-.01.35-.14,15.07-29,22.77-5.95,24.27,6.09.02.14.13.24.28.25.14,0,.26-.1.29-.23,2.42-13.52,17.86-27.21,24.15-4.07.03.13.15.21.28.21.13,0,.24-.1.27-.23,1.85-8.1,14.31-9.57,16.53-2.01.03.08.09.13.17.15.08.01.16-.02.2-.09,8.53-12.24,19.34,6.11,6.35,11.13-.12.05-.24.03-.33-.05-.11-.07-.15-.19-.13-.31.15-1.35.28-4.92-2.62-5.28-3.57-.45-4.96,2.79-5.4,3.96-.43,1.16-2.72,6.54-3.04,7.37-.32.83-10.44.66-15.16.88-16.32.78-88.02,3.32-78.91,36.05,1.34,4.82,3.3,7.33,5.07,8.74.12.09.29.07.39-.04.1-.11.1-.28,0-.4-2.68-2.72-4.76-7.81-4.04-12.26,4.38-27.26,54.76-22.33,87.09-22.15-.03.03-.05.05-.08.07-1.05.9-2.65,3.5-3.44,4.08-2.71,1.98-1.85,5.63-1.19,6.76.02.02.05.03.07.03.03-.01.04-.04.04-.06-.15-2.11,1-3.79,1.33-3.74-.13.54-.11,2.71.99,4.28.02.02.05.03.07.02.03-.01.03-.04.03-.07-.46-2.01-.1-3.11.73-3.6-.28,2.63.71,3.5,1.35,4.08.02.02.05.02.07,0,.03-.01.03-.04.02-.06-.78-1.73.24-2.84.24-2.84l.73-.5c.56-.35-.17-3.1.96-5.52,1.57-3.37,4.52.11,4.67,2.82,0,.03.02.05.04.05.03,0,.05,0,.06-.03.72-1.34.04-5.19-.95-5.65-.09-.04-.17-.09-.24-.14,5.91-.06,11-.35,14.8-1.11,0,0,1.19,2.3,2.21,2.84,1.01.54.78,1.86,1.11,2.78.25.7,1.17,1.72,1.59,2.17.11.12.12.3.03.43-.32.44-.45,1.05-1.26,1.01-11.58,1.17-6.52,7.46-12.82,10.94,0,0-.6.53-1.55-.37-.92-.86-5.36.06-6.46,1.4-.02.02-.02.04,0,.07.01.02.04.03.06.02,2.96-1,7.97.67,5.01,3.79-2.1,2.22-5.35,2.61-5.48,3.35l-.23.99s-.76,1.58-2.96,1.45c-.03,0-.05.02-.06.04,0,.03,0,.05.04.06.88.43,2.24,1.17,4.96-.25-.17,1.09-1.21,1.94-3.58,2.3-.02,0-.04.03-.04.05-.01.03,0,.06.03.06,2.16.54,4.51-.37,5.04-.73.19.32-1.13,2.28-3.47,3.01-.03,0-.04.03-.04.05,0,.03.02.05.04.05,1.46.25,5.79-.36,6.76-4.13.28-1.08,2.39-3.89,2.9-5.4.51-1.51,6.76-7.8,7.84-8.35,1.08-.56,3.21-1.53,5.94-1.68,2.73-.14,4.69-1.52,6.69-3.88,2.01-2.36,3.62-8.1,2.99-10.18-.52-1.7-1.04-3.32-1.21-3.85-.03-.07-.05-.12-.09-.18-.02-.02.12-.19,1.33-1.13,5.52-3.58,7.91-8.18,9.89-12.71,1.83-4.16,10.41-1.37,5.82,6.79-.05.08-.03.18.04.25.07.07.18.08.25.03,5.19-3.26,8.41.08,9.28,1.6,1.52,2.65.12,6.43-4.68,11.19-.1.1-.11.25-.03.37.07.11.21.16.34.11,4.12-1.61,7.57-2.47,9.36-.79,4.18,3.96-2.2,16.99-7.58,21.04-.11.08-.15.24-.08.36.06.13.21.18.34.14,7.28-2.46,12.56-10.52,10.66-4.38-1.05,3.43-3.75,8.18-6.83,11.82-.09.11-.09.28.02.39.11.1.27.11.39.02,18.47-15.31,25.93-49.12,11.71-67.86-2.45-3.23-1.93-5.33-4.43-6.9-.12-.08-.27-.05-.37.06-.09.11-.09.27,0,.37,1.97,2.26.74,4.67-.07,5.5-10.87,11.19-11.71-4.96-17.2-10.24-1.2-1.15-1.88-2.53-2.06-4.19-.91-8.06-4.6-19.3-14.31-23.09-8.97-3.51-2.85-3.13-2.47-3.14.34,0,7,.37,10.73,3.68.11.09.26.09.38,0,.11-.09.13-.24.05-.36-1.39-2.26-4.46-4.18-9.16-5.19-5.77-1.23-8.13-.61-9-.39-.87.22-1.32.22-2.56,0-1.25-.21-1.83-.77-2.39-.18-.55.58-.7,1.46-2.17,1.21-1.47-.25-2.94-.43-3.74-.64-.79-.21-3.66.65-3.9,2.49-.15,1.14.47,1.89.98,2.3.09.07.21.09.32.03.11-.06.17-.16.15-.28-.04-.45.03-.9.61-.49,1.02.71,1.4,1.07.74,1.41-.66.33-1.06.95.03,2.04,1.1,1.09,5.56,1.94,6.96,2.11,1.4.17,3.8-.18,4.56.26,2.19,1.25,3.11,3.21,2.05,5.41-.05.12-.03.26.07.34.1.09.25.09.35.01,2.28-1.62.97-5.15,1.11-5.07,1.59.89,3.04,2.94,3,4.97,0,.14.11.27.24.29.14.02.27-.06.32-.19.14-.44.43-1.14.38-1.86.35.12,1.69,1.6,1.99,3.64,0,.05.05.09.11.09.05,0,.09-.03.11-.09.3-1.41.68-1.65,1.61-.48,1.52,1.91,2.06,6.16.68,8.67-.31.57-.87.89-1.52.89"/>
</svg>