<?xml version="1.0" encoding="UTF-8"?>
<svg xmlns="http://www.w3.org/2000/svg" viewBox="0 0 728.07 116.97">
  <g class="baseline" fill="#0f172a">
    <path d="M389.76 15.96h4.5v10.2c-1.32 1.05-2.85 1.85-4.6 2.41-1.75.56-3.56.84-5.41.84-2.61 0-4.96-.57-7.05-1.7-2.1-1.13-3.74-2.7-4.93-4.7-1.2-2-1.79-4.25-1.79-6.76s.6-4.76 1.79-6.76 2.84-3.56 4.95-4.7 4.48-1.7 7.11-1.7c2.14 0 4.1.35 5.85 1.06s3.23 1.74 4.42 3.11l-3 2.92c-1.95-1.95-4.3-2.92-7.06-2.92-1.8 0-3.4.38-4.8 1.13s-2.5 1.82-3.29 3.18c-.79 1.37-1.19 2.92-1.19 4.68s.39 3.24 1.19 4.61a8.461 8.461 0 0 0 3.29 3.21c1.4.78 2.99 1.17 4.77 1.17 2 0 3.75-.44 5.26-1.32v-7.97Z"></path>
    <path d="m416.96 29.05-5.23-7.49c-.22.02-.55.04-.99.04h-5.78v7.46h-4.75V3.46h10.53c2.22 0 4.15.37 5.79 1.1 1.65.73 2.91 1.78 3.78 3.14.88 1.37 1.32 2.99 1.32 4.86s-.47 3.58-1.41 4.97c-.94 1.39-2.28 2.43-4.04 3.11l5.89 8.41h-5.12ZM415.24 8.8c-1.07-.87-2.64-1.31-4.72-1.31h-5.56v10.2h5.56c2.07 0 3.64-.44 4.72-1.34 1.07-.89 1.61-2.15 1.61-3.78s-.54-2.89-1.61-3.77Z"></path>
    <path d="M444.52 23.13h-12.8l-2.52 5.92h-4.9l11.51-25.59h4.68l11.55 25.59h-4.97l-2.56-5.92Zm-1.57-3.73-4.83-11.18-4.79 11.18h9.61Z"></path>
    <path d="M477.99 3.46v25.59h-4.75V18.08h-13.23v10.97h-4.75V3.46h4.75v10.56h13.23V3.46h4.75Z"></path>
    <path d="M501.42 23.13h-12.8l-2.52 5.92h-4.9l11.51-25.59h4.68l11.55 25.59h-4.97l-2.56-5.92Zm-1.58-3.73-4.83-11.18-4.79 11.18h9.61Z"></path>
    <path d="m535.66 29.05-.04-16.96-8.41 14.04h-2.12l-8.41-13.82v16.74h-4.53V3.46h3.91l10.16 16.96 9.98-16.96h3.91l.04 25.59h-4.5Z"></path>
    <path d="M559.36 28.57c-1.84-.56-3.29-1.3-4.37-2.23l1.64-3.69c1.05.83 2.33 1.5 3.86 2.03s3.05.79 4.59.79c1.9 0 3.32-.3 4.26-.91.94-.61 1.41-1.41 1.41-2.41 0-.73-.26-1.33-.79-1.81-.52-.48-1.19-.85-1.99-1.12s-1.9-.57-3.29-.91c-1.95-.46-3.53-.93-4.73-1.39s-2.24-1.19-3.11-2.18c-.87-.99-1.3-2.32-1.3-4 0-1.41.38-2.7 1.15-3.86s1.93-2.08 3.47-2.76c1.55-.68 3.44-1.02 5.69-1.02 1.56 0 3.09.19 4.61.58 1.51.39 2.81.95 3.91 1.68l-1.5 3.69c-1.12-.66-2.29-1.16-3.51-1.5-1.22-.34-2.4-.51-3.54-.51-1.88 0-3.27.32-4.19.95-.91.64-1.37 1.48-1.37 2.52 0 .73.26 1.33.79 1.79.52.47 1.19.83 1.99 1.1s1.9.57 3.29.91c1.9.44 3.46.9 4.68 1.37s2.26 1.2 3.12 2.18 1.3 2.29 1.3 3.95c0 1.41-.38 2.69-1.15 3.84s-1.93 2.06-3.49 2.74c-1.56.68-3.46 1.02-5.7 1.02-1.97 0-3.88-.28-5.72-.84Z"></path>
    <path d="M596.44 4.56c1.65.73 2.91 1.78 3.78 3.14.88 1.37 1.32 2.99 1.32 4.86s-.44 3.47-1.32 4.84c-.88 1.38-2.14 2.43-3.78 3.16-1.65.73-3.58 1.1-5.79 1.1h-5.78v7.38h-4.75V3.46h10.53c2.22 0 4.15.37 5.79 1.1Zm-1.3 11.77c1.07-.88 1.61-2.13 1.61-3.77s-.54-2.89-1.61-3.77c-1.07-.87-2.64-1.31-4.72-1.31h-5.56v10.16h5.56c2.07 0 3.64-.44 4.72-1.32Z"></path>
    <path d="M611.44 27.71c-2.1-1.13-3.74-2.71-4.93-4.72-1.2-2.01-1.79-4.26-1.79-6.74s.6-4.73 1.79-6.74 2.84-3.58 4.93-4.72 4.45-1.7 7.05-1.7 4.96.57 7.05 1.7 3.74 2.7 4.94 4.7c1.19 2 1.79 4.25 1.79 6.76s-.6 4.77-1.79 6.76c-1.2 2-2.84 3.57-4.94 4.7-2.1 1.13-4.45 1.7-7.05 1.7s-4.96-.57-7.05-1.7Zm11.66-3.61c1.36-.77 2.43-1.84 3.21-3.22s1.17-2.92 1.17-4.63-.39-3.25-1.17-4.62a8.347 8.347 0 0 0-3.21-3.22c-1.37-.77-2.9-1.15-4.61-1.15s-3.24.38-4.6 1.15a8.305 8.305 0 0 0-3.22 3.22c-.78 1.37-1.17 2.92-1.17 4.62s.39 3.25 1.17 4.63 1.85 2.45 3.22 3.22c1.36.77 2.9 1.15 4.6 1.15s3.24-.39 4.61-1.15Z"></path>
    <path d="m653.87 29.05-5.23-7.49c-.22.02-.55.04-.99.04h-5.78v7.46h-4.75V3.46h10.53c2.22 0 4.15.37 5.79 1.1 1.65.73 2.91 1.78 3.78 3.14.88 1.37 1.32 2.99 1.32 4.86s-.47 3.58-1.41 4.97c-.94 1.39-2.28 2.43-4.04 3.11l5.89 8.41h-5.12ZM652.15 8.8c-1.07-.87-2.64-1.31-4.72-1.31h-5.56v10.2h5.56c2.07 0 3.64-.44 4.72-1.34 1.07-.89 1.61-2.15 1.61-3.78s-.54-2.89-1.61-3.77Z"></path>
    <path d="M669.02 7.48h-8.48V3.46h21.71v4.02h-8.48v21.57h-4.75V7.48Z"></path>
    <path d="M688.36 28.57c-1.84-.56-3.29-1.3-4.37-2.23l1.64-3.69c1.05.83 2.33 1.5 3.86 2.03s3.05.79 4.59.79c1.9 0 3.32-.3 4.26-.91.94-.61 1.41-1.41 1.41-2.41 0-.73-.26-1.33-.79-1.81-.52-.48-1.19-.85-1.99-1.12s-1.9-.57-3.29-.91c-1.95-.46-3.53-.93-4.73-1.39s-2.24-1.19-3.11-2.18c-.87-.99-1.3-2.32-1.3-4 0-1.41.38-2.7 1.15-3.86s1.93-2.08 3.47-2.76c1.55-.68 3.44-1.02 5.69-1.02 1.56 0 3.09.19 4.61.58 1.51.39 2.81.95 3.91 1.68l-1.5 3.69c-1.12-.66-2.29-1.16-3.51-1.5-1.22-.34-2.4-.51-3.54-.51-1.88 0-3.27.32-4.19.95-.91.64-1.37 1.48-1.37 2.52 0 .73.26 1.33.79 1.79.52.47 1.19.83 1.99 1.1s1.9.57 3.29.91c1.9.44 3.46.9 4.68 1.37s2.26 1.2 3.12 2.18 1.3 2.29 1.3 3.95c0 1.41-.38 2.69-1.15 3.84s-1.93 2.06-3.49 2.74c-1.56.68-3.46 1.02-5.7 1.02-1.97 0-3.88-.28-5.72-.84Z"></path>
    <path d="m391.48 72.46-3.22-3.11c-2.39 2.05-5.25 3.07-8.59 3.07-1.78 0-3.37-.29-4.79-.88-1.41-.58-2.52-1.4-3.33-2.43-.8-1.04-1.21-2.21-1.21-3.53 0-1.58.46-2.98 1.39-4.18.92-1.21 2.43-2.4 4.53-3.57-1.02-1.02-1.75-1.98-2.19-2.87-.44-.89-.66-1.81-.66-2.76 0-1.8.68-3.26 2.03-4.37 1.35-1.11 3.15-1.66 5.39-1.66 2.07 0 3.73.51 4.97 1.52 1.24 1.01 1.86 2.38 1.86 4.11 0 1.32-.41 2.49-1.22 3.51-.82 1.02-2.15 2.06-4 3.11l5.52 5.26c.61-1.2 1.08-2.63 1.42-4.31l3.69 1.2c-.49 2.27-1.26 4.22-2.3 5.85l3.21 3.07-2.52 2.96Zm-5.92-5.71-6.76-6.47c-1.46.8-2.49 1.58-3.09 2.32-.6.74-.9 1.58-.9 2.51 0 1.07.47 1.94 1.42 2.59.95.66 2.21.99 3.77.99 2.12 0 3.97-.65 5.56-1.94Zm-7.09-16.57c-.58.5-.88 1.15-.88 1.95 0 .59.16 1.14.48 1.66.32.52.92 1.24 1.83 2.14 1.46-.81 2.48-1.5 3.05-2.1.57-.6.86-1.25.86-1.96 0-.75-.26-1.35-.79-1.79s-1.25-.66-2.18-.66c-1 0-1.79.25-2.38.75Z"></path>
    <path d="M427.38 68.07v3.98h-19.19V46.46h18.68v3.98h-13.93v6.65h12.36V61h-12.36v7.06h14.44Z"></path>
    <path d="M455 46.47v25.59h-3.91l-14.11-17.33v17.33h-4.72V46.47h3.91l14.11 17.33V46.47H455Z"></path>
    <path d="M466.85 50.49h-8.48v-4.02h21.71v4.02h-8.48v21.57h-4.75V50.49Z"></path>
    <path d="M502.67 68.07v3.98h-19.19V46.46h18.68v3.98h-13.93v6.65h12.36V61h-12.36v7.06h14.44Z"></path>
    <path d="m524.3 72.05-5.23-7.49c-.22.02-.55.04-.99.04h-5.78v7.46h-4.75V46.47h10.53c2.22 0 4.15.37 5.79 1.1 1.65.73 2.91 1.78 3.78 3.14.88 1.37 1.32 2.99 1.32 4.86s-.47 3.58-1.41 4.97c-.94 1.39-2.28 2.43-4.04 3.11l5.89 8.41h-5.12Zm-1.72-20.25c-1.07-.87-2.64-1.31-4.72-1.31h-5.56v10.2h5.56c2.07 0 3.64-.44 4.72-1.34 1.07-.89 1.61-2.15 1.61-3.78s-.54-2.89-1.61-3.77Z"></path>
    <path d="M539.44 50.49h-8.48v-4.02h21.71v4.02h-8.48v21.57h-4.75V50.49Z"></path>
    <path d="M570.24 66.13h-12.8l-2.52 5.92h-4.9l11.51-25.59h4.68l11.55 25.59h-4.97l-2.56-5.92Zm-1.57-3.73-4.83-11.18-4.79 11.18h9.61Z"></path>
    <path d="M580.98 46.47h4.75v25.59h-4.75V46.47Z"></path>
    <path d="M615.03 46.47v25.59h-3.91l-14.11-17.33v17.33h-4.72V46.47h3.91l14.11 17.33V46.47h4.72Z"></path>
    <path d="m645.09 72.05-.04-16.96-8.41 14.04h-2.12l-8.41-13.82v16.74h-4.53V46.46h3.91l10.16 16.96 9.98-16.96h3.91l.04 25.59h-4.5Z"></path>
    <path d="M675.36 68.07v3.98h-19.19V46.46h18.68v3.98h-13.93v6.65h12.36V61h-12.36v7.06h14.44Z"></path>
    <path d="M702.98 46.47v25.59h-3.91l-14.11-17.33v17.33h-4.72V46.47h3.91l14.11 17.33V46.47h4.72Z"></path>
    <path d="M714.83 50.49h-8.48v-4.02h21.71v4.02h-8.48v21.57h-4.75V50.49Z"></path>
    <path d="M388.61 90.57c1.65.73 2.91 1.78 3.78 3.14.88 1.37 1.32 2.99 1.32 4.86s-.44 3.47-1.32 4.84c-.88 1.38-2.14 2.43-3.78 3.16-1.65.73-3.58 1.1-5.79 1.1h-5.78v7.38h-4.75V89.46h10.53c2.22 0 4.15.37 5.79 1.1Zm-1.3 11.77c1.07-.88 1.61-2.13 1.61-3.77s-.54-2.89-1.61-3.77c-1.07-.87-2.64-1.31-4.72-1.31h-5.56v10.16h5.56c2.07 0 3.64-.44 4.72-1.32Z"></path>
    <path d="M413.42 109.14h-12.8l-2.52 5.92h-4.9l11.51-25.59h4.68l11.55 25.59h-4.97l-2.56-5.92Zm-1.57-3.73-4.83-11.18-4.79 11.18h9.61Z"></path>
    <path d="m440.9 115.06-5.23-7.49c-.22.02-.55.04-.99.04h-5.78v7.46h-4.75V89.48h10.53c2.22 0 4.15.37 5.79 1.1 1.65.73 2.91 1.78 3.78 3.14.88 1.37 1.32 2.99 1.32 4.86s-.47 3.58-1.41 4.97c-.94 1.39-2.28 2.43-4.04 3.11l5.89 8.41h-5.12Zm-1.72-20.26c-1.07-.87-2.64-1.31-4.72-1.31h-5.56v10.2h5.56c2.07 0 3.64-.44 4.72-1.34 1.07-.89 1.61-2.15 1.61-3.78s-.54-2.89-1.61-3.77Z"></path>
    <path d="M456.05 93.49h-8.48v-4.02h21.71v4.02h-8.48v21.57h-4.75V93.49Z"></path>
    <path d="M495.41 89.47v25.59h-3.91l-14.11-17.33v17.33h-4.72V89.47h3.91l14.11 17.33V89.47h4.72Z"></path>
    <path d="M521.16 111.07v3.98h-19.19V89.46h18.68v3.98h-13.93v6.65h12.36V104h-12.36v7.06h14.44Z"></path>
    <path d="m542.79 115.06-5.23-7.49c-.22.02-.55.04-.99.04h-5.78v7.46h-4.75V89.48h10.53c2.22 0 4.15.37 5.79 1.1 1.65.73 2.91 1.78 3.78 3.14.88 1.37 1.32 2.99 1.32 4.86s-.47 3.58-1.41 4.97c-.94 1.39-2.28 2.43-4.04 3.11l5.89 8.41h-5.12Zm-1.72-20.26c-1.07-.87-2.64-1.31-4.72-1.31h-5.56v10.2h5.56c2.07 0 3.64-.44 4.72-1.34 1.07-.89 1.61-2.15 1.61-3.78s-.54-2.89-1.61-3.77Z"></path>
    <path d="M555 114.58c-1.84-.56-3.29-1.3-4.37-2.23l1.64-3.69c1.05.83 2.33 1.5 3.86 2.03s3.05.79 4.59.79c1.9 0 3.32-.3 4.26-.91.94-.61 1.41-1.41 1.41-2.41 0-.73-.26-1.33-.79-1.81-.52-.48-1.19-.85-1.99-1.12s-1.9-.57-3.29-.91c-1.95-.46-3.53-.93-4.73-1.39s-2.24-1.19-3.11-2.18c-.87-.99-1.3-2.32-1.3-4 0-1.41.38-2.7 1.15-3.86s1.93-2.08 3.47-2.76c1.55-.68 3.44-1.02 5.69-1.02 1.56 0 3.09.19 4.61.58 1.51.39 2.81.95 3.91 1.68l-1.5 3.69c-1.12-.66-2.29-1.16-3.51-1.5-1.22-.34-2.4-.51-3.54-.51-1.88 0-3.27.32-4.19.95-.91.64-1.37 1.48-1.37 2.52 0 .73.26 1.33.79 1.79.52.47 1.19.83 1.99 1.1s1.9.57 3.29.91c1.9.44 3.46.9 4.68 1.37s2.26 1.2 3.12 2.18 1.3 2.29 1.3 3.95c0 1.41-.38 2.69-1.15 3.84s-1.93 2.06-3.49 2.74c-1.56.68-3.46 1.02-5.7 1.02-1.97 0-3.88-.28-5.72-.84Z"></path>
  </g>
  <g class="icon" fill="#0f172a">
    <path d="M119.05 115.54h-18.91l-5.21-9.99c-9.89 7.17-22.12 11.42-35.36 11.42C26.67 116.97 0 90.8 0 58.51S26.67.05 59.57.05c30.67 0 55.92 22.75 59.2 52H92.12c-3.06-14.9-16.47-26.12-32.55-26.12-18.34 0-33.21 14.59-33.21 32.59s14.87 32.59 33.21 32.59c15.62 0 28.72-10.59 32.26-24.86h8.3v-.03h18.92v49.33Z"></path>
    <path d="m127.36 104.57 10.44-23.45c9.96 6.59 24.1 11.08 37.11 11.08s18.31-3.69 18.31-9.16c0-17.83-63.93-4.82-63.93-46.58 0-20.08 16.38-36.46 49.8-36.46 14.62 0 29.72 3.37 40.8 9.8l-9.8 23.61c-10.76-5.78-21.36-8.67-31.16-8.67-13.33 0-18.15 4.5-18.15 10.12 0 17.19 63.77 4.34 63.77 45.78 0 19.6-16.38 36.3-49.8 36.3-18.47 0-36.78-4.98-47.39-12.37Z"></path>
    <path d="M323.07 90.11v24.58H232.8V2.25h88.19v24.58h-56.7v18.95h49.96v23.77h-49.96v20.56h58.79Z"></path>
  </g>
</svg>
