<?xml version="1.0" encoding="utf-8"?>
<!-- Generator: Adobe Illustrator 19.1.0, SVG Export Plug-In . SVG Version: 6.00 Build 0)  -->
<svg style="fill:#0f172a" version="1.1" id="Layer_1" xmlns="http://www.w3.org/2000/svg" xmlns:xlink="http://www.w3.org/1999/xlink" x="0px" y="0px"
	 viewBox="0 0 181 65.9" style="enable-background:new 0 0 181 65.9;" xml:space="preserve">
<g>
	<path d="M31,22.8V4.6h5.6v45.2H31V28.1H9.5v21.7H3.8V4.6h5.6v18.2H31z"/>
	<path d="M88.4,27v1.8c0,12.4-8.8,22-21.4,22c-12.7,0-22.9-10.9-22.9-23.5c0-13,10.4-23.7,23.5-23.7c7,0,14,3.2,18.4,8.8l-4,3.8
		c-3.2-4.4-8.7-7.4-14.2-7.4c-10.1,0-18.1,8.2-18.1,18.4c0,9.5,7.8,18.5,17.6,18.5c7,0,14.6-6.1,14.8-13.4H70.5V27H88.4z"/>
	<path d="M137.6,27v1.8c0,12.4-8.8,22-21.4,22c-12.7,0-22.9-10.9-22.9-23.5c0-13,10.4-23.7,23.5-23.7c7,0,14,3.2,18.4,8.8l-4,3.8
		c-3.2-4.4-8.7-7.4-14.2-7.4C106.9,8.8,99,17,99,27.1c0,9.5,7.8,18.5,17.6,18.5c7,0,14.6-6.1,14.8-13.4h-11.7V27H137.6z"/>
	<path d="M178.6,13.2c-3.2-2.9-7.7-4.4-11.9-4.4c-10.1,0-17.9,8.5-17.9,18.5c0,9.9,7.7,18.4,17.8,18.4c4.4,0,8.7-1.7,12.1-4.7v6.7
		c-3.5,2-7.9,3.2-11.9,3.2c-12.9,0-23.6-10.3-23.6-23.3c0-13.4,10.7-23.8,24.1-23.8c4,0,8,1,11.4,3.1V13.2z"/>
</g>
</svg>
