<svg xmlns="http://www.w3.org/2000/svg" width="287" height="70" fill="none"><g fill="#1e293b" clip-path="url(#a)"><path d="M283.76 0H.0298v1.1H283.76V0ZM283.76 68.0498H.0298v1.1H283.76v-1.1ZM53.1498 52.4499c-6.42 0-10.41-6.31-10.41-17.97s3.99-17.97 10.41-17.97 10.47 6.26 10.47 17.97c0 11.71-3.99 17.97-10.47 17.97Zm0 .65c11.49 0 18.62-7.45 18.62-18.62 0-11.17-7.18-18.62-18.62-18.62-11.44 0-18.56 7.45-18.56 18.62 0 11.17 7.18 18.62 18.56 18.62ZM0 52.2402h15.81v-.65h-1.62c-1.67 0-2.43-.76-2.43-2.43v-29.36c0-1.57.86-2.43 2.43-2.43h1.78v-.65H0v.65h1.78c1.57 0 2.43.86 2.43 2.43v29.36c0 1.67-.75 2.43-2.43 2.43H0v.65Z"/><path d="M19.81 52.24H36.7v-.65h-.43c-1.67 0-2.97-.76-4.21-2.43l-13.38-19.1 5.45-6.04c3.89-4.37 7.23-6.64 11.17-6.64h.32v-.65H21.27v.65h1.08c3.67 0 3.99 2.97.7 6.64l-9.82 11.06 9.23 13.22c.97 1.4 1.13 3.29-1.19 3.29h-1.46v.65ZM268 53.1001c3.45 0 6.1-.97 8.1-1.84 1.73-.76 3.02-1.4 4.1-1.4.97 0 1.35.54 1.51 1.73l.11.65h.65v-13.82c0-1.62.86-2.43 2.43-2.43h1.35v-.65h-15.17v.65h1.78c1.57 0 2.43.86 2.43 2.43v5.34c0 5.51-2.91 8.64-7.29 8.64-6.53 0-10.52-6.53-10.52-17.92s4.15-17.86 10.96-17.86c5.56 0 10.36 4.32 11.76 11.33l.21 1.03h.65v-12.25h-.65v.11c-.05.86-.54 1.3-1.4 1.3-.7 0-1.94-.43-3.56-.92-2.32-.81-4.8-1.35-7.29-1.35-11.49 0-18.83 7.5-18.83 18.62 0 11.12 7.5 18.62 18.67 18.62M241.98 53.1002c4.21 0 6.53-2.43 6.53-6.8v-.65h-.65v.65c0 2.75-1.08 4.53-2.86 4.53-1.94 0-3.08-1.62-3.67-5.72l-.49-3.4c-.65-4.53-3.29-7.01-8.53-7.61 6.26-.65 9.55-3.67 9.55-8.74 0-5.51-4.16-8.64-12.3-8.64h-16.89v.65h1.78c1.57 0 2.48.86 2.48 2.43v29.36c0 1.56-.86 2.43-2.48 2.43h-1.78v.65h16.03v-.65h-1.78c-1.57 0-2.43-.86-2.43-2.43v-31.68h2.7c4.42 0 6.85 2.86 6.85 8.04s-2.43 8.2-6.69 8.2h-.81v.65h.38c3.72 0 5.4 1.78 6.21 7.39l.49 3.4c.81 5.61 3.72 7.93 8.36 7.93M201.47 41.0598h.65v-13.76h-.65l-.05.43c-.38 3.94-2.59 6.1-6.48 6.1h-1.35v.7h1.35c3.89 0 6.1 2.16 6.48 6.1l.05.43Z"/><path d="M179.67 52.24h27.52l1.4-10.63-.65-.11-.32.97c-1.57 5.61-5.67 9.01-10.85 9.01h-3.62c-1.02 0-1.73-.7-1.73-1.73V17.48h3.78c5.4 0 9.61 3.18 10.9 9.23l.16.65h.65l-.54-10.63h-26.71v.65h1.78c1.51 0 2.43.92 2.43 2.43v29.36c0 1.57-.86 2.43-2.43 2.43h-1.78v.65l.01-.01ZM165.75 34.1c5.56-.7 9.34-3.56 9.34-8.63 0-5.83-4.91-8.74-12.2-8.74h-16.46v.65h1.78c1.57 0 2.43.86 2.43 2.43v29.36c0 1.67-.76 2.43-2.43 2.43h-1.78v.65h17.97c7.12 0 11.76-3.24 11.76-9.34 0-5.13-4.1-8.2-10.42-8.8m-3.67 17.38h-2.11c-1.08 0-1.78-.7-1.78-1.73V17.48h2.64c4.59 0 6.85 2.92 6.85 8.04 0 5.67-2.16 8.31-6.53 8.31h-.81v.7h1.29c4.7 0 7.02 2.75 7.02 8.36 0 5.61-2.16 8.58-6.58 8.58M117.67 52.2402h26.23l1.35-10.63-.65-.11-.27.97c-1.57 5.61-5.67 9.01-10.9 9.01h-2.27c-1.08 0-1.73-.65-1.73-1.73v-29.95c0-1.51.92-2.43 2.43-2.43h1.78v-.65h-15.97v.65h1.78c1.56 0 2.43.86 2.43 2.43v29.36c0 1.57-.86 2.43-2.43 2.43h-1.78v.65ZM74.5 52.2402h15.97v-.65h-1.78c-1.67 0-2.43-.76-2.43-2.43v-14.52h15.43v14.52c0 1.67-.76 2.43-2.43 2.43h-1.78v.65h15.98v-.65h-1.78c-1.67 0-2.43-.76-2.43-2.43v-29.36c0-1.57.86-2.43 2.43-2.43h1.78v-.65H97.48v.65h1.78c1.56 0 2.43.86 2.43 2.43v13.89H86.26v-13.89c0-1.51.92-2.43 2.43-2.43h1.78v-.65H74.5v.65h1.78c1.57 0 2.43.86 2.43 2.43v29.36c0 1.67-.76 2.43-2.43 2.43H74.5v.65Z"/></g><defs><clipPath id="a"><path fill="#1e293b" d="M0 0h286.25v69.15H0z"/></clipPath></defs></svg>