<?xml version="1.0" encoding="UTF-8"?>
<svg width="248px" height="31px" viewBox="0 0 248 31" version="1.1" xmlns="http://www.w3.org/2000/svg" xmlns:xlink="http://www.w3.org/1999/xlink">
    <title>White Logo</title>
    <defs>
        <polygon id="path-1" points="0 0 117.943823 0 117.943823 31 0 31"></polygon>
    </defs>
    <g id="Symbols" stroke="none" stroke-width="1" fill="none" fill-rule="evenodd">
        <g id="White-Logo">
            <g id="Group-3">
                <mask id="mask-2" fill="#1e293b">
                    <use xlink:href="#path-1"></use>
                </mask>
                <g id="Clip-2"></g>
                <path d="M116.71964,-0.000483608028 L1.22296609,-0.000483608028 C0.55003052,-0.000483608028 0,0.545993463 0,1.21579058 L0,29.7861438 C0,30.4535229 0.55003052,31 1.22296609,31 L116.71964,31 C117.393793,31 117.943823,30.4535229 117.943823,29.7861438 L117.943823,1.21579058 C117.943823,0.545993463 117.393793,-0.000483608028 116.71964,-0.000483608028 L116.71964,-0.000483608028 Z M23.0294858,23.948995 L12.4985918,23.948995 L12.4985918,7.30925173 L16.1906108,7.30925173 L16.1906108,20.5661568 L23.0294858,20.5661568 L23.0294858,23.948995 Z M42.9242844,23.948995 L31.1193152,23.948995 L31.1193152,7.30925173 L42.497159,7.30925173 L42.497159,10.6932989 L34.8089005,10.6932989 L34.8089005,13.7956444 L42.0700335,13.7956444 L42.0700335,17.1796916 L34.8089005,17.1796916 L34.8089005,20.5661568 L42.9242844,20.5661568 L42.9242844,23.948995 Z M59.7914814,23.948995 L56.8344589,23.948995 L50.1391759,7.30925173 L54.3495866,7.30925173 L58.4906349,18.2146128 L58.5356595,18.2146128 L62.7485039,7.30925173 L66.6985019,7.30925173 L59.7914814,23.948995 Z M86.3109839,23.948995 L74.5072316,23.948995 L74.5072316,7.30925173 L85.8850753,7.30925173 L85.8850753,10.6932989 L78.1968169,10.6932989 L78.1968169,13.7956444 L85.4579499,13.7956444 L85.4579499,17.1796916 L78.1968169,17.1796916 L78.1968169,20.5661568 L86.3109839,20.5661568 L86.3109839,23.948995 Z M105.852887,23.948995 L95.3256434,23.948995 L95.3256434,7.30925173 L99.0152287,7.30925173 L99.0152287,20.5661568 L105.852887,20.5661568 L105.852887,23.948995 Z" id="Fill-1" fill="#1e293b" mask="url(#mask-2)"></path>
            </g>
            <polygon id="Fill-4" fill="#1e293b" points="142.687044 23.9544355 142.486258 23.9544355 130.537697 23.9544355 130.335694 23.9544355 130.335694 23.7537382 130.335694 7.49000023 130.335694 7.29051192 130.537697 7.29051192 142.368221 7.29051192 142.570223 7.29051192 142.570223 7.49000023 142.570223 9.18625539 142.570223 9.38695272 142.368221 9.38695272 132.585709 9.38695272 132.585709 14.4926445 141.318052 14.4926445 141.518837 14.4926445 141.518837 14.6933418 141.518837 16.3883879 141.518837 16.5890853 141.318052 16.5890853 132.585709 16.5890853 132.585709 21.8567857 142.486258 21.8567857 142.687044 21.8567857 142.687044 22.0574831 142.687044 23.7537382"></polygon>
            <g id="Group-9" transform="translate(150.888218, 7.011591)" fill="#1e293b">
                <path d="M15.8584021,17.5126557 L15.7099425,17.3772455 L13.6838345,15.539535 C13.0011639,16.0436963 12.2442635,16.448718 11.4253021,16.744928 C10.5515811,17.0592732 9.57807572,17.2212819 8.52790683,17.2212819 C7.25748235,17.2212819 6.08440841,16.98915 5.04397457,16.5309314 C4.00232385,16.0727128 3.095747,15.4440224 2.34736476,14.6617864 C1.60263317,13.8831775 1.01852997,12.9619042 0.609657723,11.9245649 C0.206869886,10.8920618 0,9.79185354 0,8.65537468 C0,7.47174403 0.210520531,6.36790871 0.624260303,5.33056949 C1.03800007,4.28597615 1.62575393,3.36228481 2.3717024,2.58246687 C3.11886775,1.80023088 4.03031213,1.16670437 5.07683038,0.702440661 C6.12821615,0.236967934 7.30372385,0 8.57414833,0 C9.84213904,0 11.015213,0.233340873 12.0568637,0.69035046 C13.0997313,1.14977809 14.0063082,1.77846852 14.7534735,2.55828647 C15.5006389,3.34052245 16.0847421,4.26058673 16.4899637,5.29671693 C16.8951853,6.32922007 17.1008383,7.42821931 17.1008383,8.56469817 C17.1008383,9.6564433 16.9268242,10.6659751 16.5848804,11.6162648 C16.2684912,12.5036856 15.8097268,13.3197741 15.2195392,14.0439771 L17.2383459,15.7051707 L17.401408,15.8393719 L17.2590329,15.9953355 L15.9959097,17.3651553 L15.8584021,17.5126557 Z M8.52790683,2.09764982 C7.62376374,2.09764982 6.78168161,2.26691263 6.02599809,2.60181119 C5.26423016,2.94033681 4.60589717,3.40580954 4.06925234,3.98372113 C3.52895688,4.56525978 3.09696388,5.25561024 2.78665905,6.03542819 C2.47878799,6.81645515 2.32302713,7.66760528 2.32302713,8.56469817 C2.32302713,9.50894285 2.47878799,10.362511 2.78665905,11.1507921 C3.09696388,11.9378642 3.53504129,12.6318417 4.09115621,13.2109623 C4.64605426,13.79371 5.3141223,14.2628098 6.07345647,14.6061715 C6.83035688,14.9495332 7.67122212,15.122423 8.57414833,15.122423 C9.28115659,15.122423 9.95287528,15.0172383 10.5649668,14.8080778 C11.0955272,14.6291428 11.5822798,14.3849208 12.0154897,14.0826658 L9.16798659,11.6658347 L9.00979197,11.5340515 L9.14973337,11.3792969 L10.3897358,10.0094772 L10.5248097,9.86076769 L10.675703,9.99617794 L13.5268568,12.5665546 C13.9016563,12.0551391 14.2010092,11.4832726 14.4163973,10.8666724 C14.6573399,10.1775309 14.779028,9.43519262 14.779028,8.65537468 C14.779028,7.71113 14.6232672,6.85635282 14.3129623,6.07048977 C14.0063082,5.28583574 13.5670139,4.59306724 13.0096821,4.01031957 C12.454784,3.42636288 11.7879329,2.95726309 11.0273818,2.61390139 C10.2704814,2.27174871 9.42961615,2.09764982 8.52790683,2.09764982 L8.52790683,2.09764982 Z" id="Fill-5"></path>
                <path d="M32.9634994,17.1983105 C31.9328007,17.1983105 30.9775485,17.0423469 30.1232976,16.7328378 C29.2629622,16.4197016 28.51458,15.9518108 27.897621,15.3400466 C27.2818789,14.7258644 26.79756,13.9557187 26.45805,13.0477446 C26.1246244,12.1458156 25.9554778,11.0988042 25.9554778,9.93451791 L25.9554778,0.478771948 L25.9554778,0.278074616 L26.1574802,0.278074616 L28.0059235,0.278074616 L28.2079258,0.278074616 L28.2079258,0.478771948 L28.2079258,9.81845199 C28.2079258,11.5231703 28.6338344,12.8470473 29.4746997,13.7477672 C30.3119143,14.6460691 31.4995908,15.1006607 33.0097409,15.1006607 C34.459047,15.1006607 35.621169,14.6678315 36.4656849,13.8130543 C37.3126346,12.9582771 37.73976,11.6537445 37.73976,9.93451791 L37.73976,0.478771948 L37.73976,0.278074616 L37.9417624,0.278074616 L39.7902057,0.278074616 L39.992208,0.278074616 L39.992208,0.478771948 L39.992208,9.79427158 C39.992208,10.9899924 39.8230615,12.0587662 39.488419,12.9764124 C39.1549934,13.8964767 38.6706745,14.6787127 38.0524986,15.302567 C37.4355396,15.9240033 36.6859405,16.4003572 35.8280389,16.7195385 C34.9713542,17.0375108 34.0075839,17.1983105 32.9634994,17.1983105" id="Fill-7"></path>
            </g>
            <polygon id="Fill-10" fill="#1e293b" points="202.877419 23.955161 202.675416 23.955161 200.826973 23.955161 200.623754 23.955161 200.623754 23.7544636 200.623754 7.48951663 200.623754 7.28881929 200.826973 7.28881929 202.675416 7.28881929 202.877419 7.28881929 202.877419 7.48951663 202.877419 23.7544636"></polygon>
            <polygon id="Fill-11" fill="#1e293b" points="219.454146 23.953831 219.252144 23.953831 217.406134 23.953831 217.204132 23.953831 217.204132 23.7531337 217.204132 9.38755723 211.910697 9.38755723 211.708694 9.38755723 211.708694 9.1868599 211.708694 7.49060474 211.708694 7.28990741 211.910697 7.28990741 224.748798 7.28990741 224.950801 7.28990741 224.950801 7.49060474 224.950801 9.1868599 224.950801 9.38755723 224.748798 9.38755723 219.454146 9.38755723 219.454146 23.7531337"></polygon>
            <polygon id="Fill-12" fill="#1e293b" points="247.616682 7.2893029 245.465235 7.2893029 245.35815 7.2893029 245.29974 7.37756137 239.912604 15.2615812 234.572928 7.37756137 234.5133 7.2893029 234.404998 7.2893029 232.162285 7.2893029 231.776533 7.2893029 231.995572 7.60485714 238.763868 17.3785754 238.763868 23.7537382 238.763868 23.9556446 238.967087 23.9556446 240.813097 23.9556446 241.016316 23.9556446 241.016316 23.7537382 241.016316 17.355604 247.782178 7.60485714 248 7.2893029"></polygon>
        </g>
    </g>
</svg>