<svg xmlns="http://www.w3.org/2000/svg" viewBox="0 0 338.17 146.35"><defs><style>.cls-1{fill:#fff;}</style></defs><g id="Layer_2" data-name="Layer 2"><g id="Layer_1-2" data-name="Layer 1"><path class="cls-1" d="M93.55,54.06l16.88-24.84,30.21,24.84h5.17L144.34,12.3l46.78,41.76h2.93L182.28,27.9l15.6-9.45L217,49.21S229.94,40,231.55,40c.65,0,7.5,6.41,15.48,14.08h4.11L228.32,27.68,215.4,32.3l-15.91-20L171.8,27.68,144.34,0,122.9,32.09l-14.09-9-29.44,31Z"/><polygon class="cls-1" points="6.92 66.97 0 66.97 0 108.8 23.05 108.8 23.05 102.84 6.92 102.84 6.92 66.97"/><path class="cls-1" d="M44.45,74.34c-10.35,0-17.38,7.87-17.38,17.6s7,17.65,17.38,17.65,17.44-7.93,17.44-17.65S54.92,74.34,44.45,74.34Zm0,28.67c-5.89,0-10.18-4.66-10.18-11.07s4.29-11.08,10.18-11.08,10.29,4.67,10.29,11.08S50.45,103,44.45,103Z"/><polygon class="cls-1" points="94.83 96.72 76.7 75.07 71.38 75.07 71.38 108.8 78.3 108.8 78.3 86.94 96.43 108.8 101.75 108.8 101.75 75.07 94.83 75.07 94.83 96.72"/><path class="cls-1" d="M144.57,93.34v-4.1H127.76v5.57H137v.45c-.17,4.49-3.2,7.81-8.41,7.81-6.06,0-10.18-4.72-10.18-11.13s4.18-11.07,10.24-11.07a11.86,11.86,0,0,1,8.24,3L141,78.62s-3.72-4.28-12.35-4.28c-10.81,0-17.44,7.87-17.44,17.6s6.52,17.59,17.32,17.59C138.46,109.53,144.57,103.12,144.57,93.34Z"/><path class="cls-1" d="M176.37,90.09c4.17-1.69,6.8-6.88,6.8-11.83C183.17,71.46,178,67,170,67H155.38V108.8h6.92V91.15h6.52l7.72,17.65h7.78v-.67l-7.95-17.6Zm-6.58-4.78H162.3V72.92h7.32c3.77,0,6.41,1.74,6.41,5.4S173.39,85.31,169.79,85.31Z"/><path class="cls-1" d="M217,108.8h7.38L210.79,75.08h-7.26L189.92,108.8h7.38l2.45-6.52h14.82Zm-15.21-12,5.32-14.16,5.38,14.16Z"/><polygon class="cls-1" points="254.46 96.72 236.33 75.08 231.01 75.08 231.01 108.8 237.93 108.8 237.93 86.94 256.06 108.8 261.38 108.8 261.38 75.08 254.46 75.08 254.46 96.72"/><path class="cls-1" d="M287.39,94.8h9.21v.45c-.17,4.5-3.2,7.82-8.41,7.82-6.06,0-10.17-4.72-10.17-11.13s4.17-11.07,10.23-11.07a11.88,11.88,0,0,1,8.24,3l4.17-5.22s-3.71-4.27-12.35-4.27c-10.81,0-17.44,7.87-17.44,17.59s6.52,17.59,17.32,17.59c9.9,0,16-6.41,16-16.19v-4.1H287.39Z"/><polygon class="cls-1" points="338.17 81.03 338.17 75.08 313.47 75.08 313.47 108.8 338.17 108.8 338.17 102.84 320.39 102.84 320.39 94.47 335.37 94.47 335.37 88.96 320.39 88.96 320.39 81.03 338.17 81.03"/><path class="cls-1" d="M92,131.63a5.3,5.3,0,0,1,3.8,1.47l2-2.68a7.89,7.89,0,0,0-5.85-2.13c-5.45,0-8.82,4-8.82,9s3.37,9,8.82,9a7.84,7.84,0,0,0,5.85-2.16l-2-2.68A5.26,5.26,0,0,1,92,143c-3.08,0-5.24-2.42-5.24-5.71S88.87,131.63,92,131.63Z"/><path class="cls-1" d="M116.29,128.66,109.44,146h3.71l1.24-3.34h7.46l1.24,3.34h3.72L120,128.66Zm-.86,11.12,2.68-7.26,2.71,7.26Z"/><path class="cls-1" d="M147.41,128.66H140V146h3.49v-5.62h3.86c4,0,6.65-2.19,6.65-5.88C154,131,151.41,128.66,147.41,128.66Zm-.2,8.64h-3.69v-5.58h3.69c1.9,0,3.22.89,3.22,2.76S149.11,137.3,147.21,137.3Z"/><rect class="cls-1" x="168.03" y="128.66" width="3.49" height="17.29"/><polygon class="cls-1" points="185.55 131.72 190.68 131.72 190.68 145.95 194.16 145.95 194.16 131.72 199.32 131.72 199.32 128.66 185.55 128.66 185.55 131.72"/><path class="cls-1" d="M216.29,128.66,209.43,146h3.72l1.24-3.34h7.46l1.24,3.34h3.72L220,128.66Zm-.86,11.12,2.68-7.26,2.7,7.26Z"/><polygon class="cls-1" points="243.51 128.66 240.03 128.66 240.03 145.95 251.64 145.95 251.64 142.89 243.51 142.89 243.51 128.66"/></g></g></svg>