<svg xmlns="http://www.w3.org/2000/svg" viewBox="0 0 435.9 27.6"><g data-name="Layer 2"><path d="M2.6 18.3V27H0V.7h11.7c11.8 0 11.8 17.5 0 17.6zm0-2.5h9.1c8.2 0 8.2-12.6 0-12.6H2.6zM45 27H26.2V.7h18.5v2.5H28.8v9.4H44v2.5H28.8v9.4H45zM59.2 3.2H50V.7h21.1v2.5h-9.3V27h-2.6zM94.9 27H76.1V.7h18.4v2.5H78.7v9.4h15.1v2.5H78.7v9.4h16.2zm29.5 0H121l-8.7-9.7h-6.8V27h-2.6V.7h11.7c5.9 0 8.7 3.9 8.7 8.4s-2.3 7.8-7.9 8zM105.5 3.2v11.6h9c4.2 0 6.2-2.4 6.2-5.7s-2-5.9-6.1-5.9zm41.8 2.9c-1.6-2.4-4.8-3.3-7.6-3.3s-7.3.9-7.3 4.8 3.3 3.9 7.4 4.6 10.4 2.1 10.4 7.7-5.7 7.5-10.5 7.5-8.9-1.6-10.9-5.8l2.3-1.2c1.8 3.3 5.5 4.5 8.6 4.5s7.9-.9 7.9-5.1-4-4.4-8.1-5.1-9.8-2-9.8-7.1 5.6-7.3 10-7.3 7.5 1 9.8 4.6zm34 7.8c-.1 6.9-4.4 13.6-13.3 13.6s-13.3-6.7-13.3-13.6S159.5.3 168 .3s13.3 6.6 13.3 13.6zM168 25c7.2 0 10.6-5.4 10.6-11.1S175.2 2.8 168 2.8s-10.8 5-10.7 11.1S160.8 25 168 25zm38.2-3V.7h2.6V27h-1.6l-17-21.1V27h-2.6V.7h1.6zm24.6-3.1V27h-4.2V.7h12.1c12.6 0 12.6 18.2 0 18.2zm0-3.8h7.9c7 0 6.9-10.5 0-10.5h-7.9zm37.8 6.4h-14.2l-2.5 5.5h-4.5L259.2.7h4.6L275.6 27h-4.5zm-7.1-16.3L256 17.7h11zM302.6 27h-4.9l-8-9.1h-5.6V27h-4.2V.7h12.3c6 0 9.2 4.2 9.2 8.6s-1.9 7.5-7.1 8.2l7.8 8.7zM284.1 4.6v9.5h8c3.5 0 5-2.2 5-4.7a4.6 4.6 0 00-4.9-4.8zm28.4-.1h-8.7V.7h21.5v3.8h-8.6V27h-4.2zm36.3 14.9V.7h4.2V27h-3.2L334.9 8.5V27h-4.2V.7h3.2zm32.4 7.6h-19.4V.7h19.3v4.1H366v7.1h14.5v3.9H366v7.1h15.2zm29.6 0h-5l-7.9-9.1h-5.6V27h-4.2V.7h12.2c6.1 0 9.3 4.2 9.3 8.6s-2 7.5-7.1 8.2l7.8 8.7zM392.3 4.6v9.5h8c3.5 0 5-2.2 5-4.7a4.6 4.6 0 00-5-4.8zm39.3 2a8.4 8.4 0 00-6.5-3c-3.6 0-6.1 1.5-6.1 4s2.9 3.3 6.4 3.8c5.4.7 10.5 2.2 10.5 8.1s-5.4 8.1-10.9 8.1-8.9-1.6-11.3-6l3.2-2.1a9.1 9.1 0 008.2 4.3c3.1 0 6.6-1 6.6-4.3s-3-3.8-6.7-4.3-10.2-2-10.2-7.7S420.2 0 425 0s7.5.9 9.7 4.4z" fill="#0f172a" data-name="Layer 1"/></g></svg>