<svg id="Rockwood-Equity" xmlns="http://www.w3.org/2000/svg" width="300" height="40.711" viewBox="0 0 300 40.711">
  <path id="Combined_Shape" data-name="Combined Shape" d="M177.433,25.749a11.229,11.229,0,0,1-4.254-4.193,11.963,11.963,0,0,1-1.547-6.086,12.071,12.071,0,0,1,1.547-6.107,11.174,11.174,0,0,1,4.254-4.214,13.3,13.3,0,0,1,12.376,0,11.33,11.33,0,0,1,4.275,4.214,11.946,11.946,0,0,1,1.567,6.107,11.837,11.837,0,0,1-1.567,6.086,11.374,11.374,0,0,1-4.275,4.193,13.306,13.306,0,0,1-12.376,0Zm1-17.668a10.46,10.46,0,0,0-1.751,6.249,15.565,15.565,0,0,0,.957,5.638,9.14,9.14,0,0,0,2.647,3.847,6.029,6.029,0,0,0,3.928,1.385,5.449,5.449,0,0,0,4.682-2.423,10.719,10.719,0,0,0,1.71-6.289,15.348,15.348,0,0,0-.958-5.639A9.158,9.158,0,0,0,187,7.043a5.93,5.93,0,0,0-3.847-1.384A5.554,5.554,0,0,0,178.43,8.081ZM149.181,25.749a11.216,11.216,0,0,1-4.254-4.193,11.945,11.945,0,0,1-1.547-6.086,12.055,12.055,0,0,1,1.547-6.107,11.162,11.162,0,0,1,4.254-4.214,13.3,13.3,0,0,1,12.376,0,11.342,11.342,0,0,1,4.275,4.214A11.955,11.955,0,0,1,167.4,15.47a11.846,11.846,0,0,1-1.567,6.086,11.387,11.387,0,0,1-4.275,4.193,13.306,13.306,0,0,1-12.376,0Zm1-17.668a10.454,10.454,0,0,0-1.75,6.249,15.546,15.546,0,0,0,.957,5.638,9.132,9.132,0,0,0,2.647,3.847,6.029,6.029,0,0,0,3.928,1.385,5.451,5.451,0,0,0,4.682-2.423,10.725,10.725,0,0,0,1.71-6.289,15.348,15.348,0,0,0-.958-5.639,9.174,9.174,0,0,0-2.645-3.807A5.932,5.932,0,0,0,154.9,5.658,5.552,5.552,0,0,0,150.178,8.081ZM61.086,25.81a11.24,11.24,0,0,1-4.438-4.01A10.616,10.616,0,0,1,55.04,16,11.745,11.745,0,0,1,56.1,10.992a11.915,11.915,0,0,1,2.911-3.929,13.459,13.459,0,0,1,4.214-2.545,13.8,13.8,0,0,1,4.926-.9,17.876,17.876,0,0,1,3.054.224,11.6,11.6,0,0,1,2.239.611q.976.387,1.954.875l.285,6.025h-.693l-2.808-4.52a5.492,5.492,0,0,0-1.813-.895,8.11,8.11,0,0,0-2.1-.245,7.308,7.308,0,0,0-4.213,1.262,8.756,8.756,0,0,0-2.932,3.461,11.411,11.411,0,0,0-1.078,5.089q0,4.6,2.259,7.144A7.589,7.589,0,0,0,68.27,25.2a11.139,11.139,0,0,0,2.1-.183,6.541,6.541,0,0,0,1.813-.632l3.175-4.519h.651L75.6,25.484a13.22,13.22,0,0,1-3.419,1.3,19.445,19.445,0,0,1-4.6.489A13.918,13.918,0,0,1,61.086,25.81Zm-27.357-.061a11.223,11.223,0,0,1-4.254-4.193,11.945,11.945,0,0,1-1.547-6.086,12.055,12.055,0,0,1,1.547-6.107A11.168,11.168,0,0,1,33.728,5.15,12.39,12.39,0,0,1,39.9,3.623,12.478,12.478,0,0,1,46.1,5.15a11.33,11.33,0,0,1,4.275,4.214,11.955,11.955,0,0,1,1.567,6.107,11.846,11.846,0,0,1-1.567,6.086A11.387,11.387,0,0,1,46.1,25.749,12.472,12.472,0,0,1,39.9,27.275,12.385,12.385,0,0,1,33.728,25.749Zm1-17.668a10.454,10.454,0,0,0-1.75,6.249,15.565,15.565,0,0,0,.957,5.638,9.132,9.132,0,0,0,2.647,3.847A6.029,6.029,0,0,0,40.506,25.2a5.451,5.451,0,0,0,4.682-2.423,10.719,10.719,0,0,0,1.71-6.289,15.348,15.348,0,0,0-.958-5.639A9.166,9.166,0,0,0,43.3,7.043a5.932,5.932,0,0,0-3.847-1.384A5.553,5.553,0,0,0,34.726,8.081Zm96.727,18.95-6.35-16.04h-.244l-6.352,16.04h-2.442L109.428,6.065,106.7,4.721V4.07H117.57v.652l-3.012,1.222,4.153,13.84h.244l6.351-15.836h2.32l6.106,15.836h.2l3.99-13.8-3.012-1.262V4.07h8.019v.652l-2.4,1.181-6.6,21.129ZM11.561,26.87H0v-.652l3.419-1.67V2.321L0,.652V0H12.539a11.4,11.4,0,0,1,6.737,1.77A5.693,5.693,0,0,1,21.74,6.636,5.758,5.758,0,0,1,20.213,10.6a10.144,10.144,0,0,1-4.01,2.626L23.816,24.67l2.849,1.547v.651H19.052L11.358,14.452H8.509V24.507l3.053,1.71v.652h0ZM8.509,12.376h2.32A5.872,5.872,0,0,0,14.92,10.95a4.789,4.789,0,0,0,1.568-3.7,4.606,4.606,0,0,0-1.547-3.685,6.534,6.534,0,0,0-4.356-1.322H8.509ZM198.5,26.869v-.652l3.012-1.343V6.066L198.5,4.722V4.071h11.276A16.951,16.951,0,0,1,216.8,5.395a10.033,10.033,0,0,1,4.417,3.664,9.792,9.792,0,0,1,1.507,5.394,12.694,12.694,0,0,1-1.628,6.493,11.4,11.4,0,0,1-4.581,4.356,14.753,14.753,0,0,1-6.981,1.567Zm7.939-2.076h2.32a8.436,8.436,0,0,0,6.6-2.544,9.946,9.946,0,0,0,2.279-6.86c0-2.971-.787-5.279-2.34-6.859s-3.861-2.382-6.86-2.382h-1.994ZM98.6,26.869,88.463,15.307v9.566l2.972,1.344v.652H80.565v-.652l3.012-1.344V6.065L80.565,4.721V4.07H91.435v.652L88.463,6.065v9.242l9.4-9.405-2.524-1.18V4.071h8.3v.652l-2.4.977-8.183,7.858,10.219,11.6,2.728,1.058v.652Z" transform="translate(77.277 6.51)"/>
  <path id="Combined_Shape-2" data-name="Combined Shape" d="M3.06,40.711A3.06,3.06,0,0,1,0,37.651V3.06A3.06,3.06,0,0,1,3.06,0H29.471A1.5,1.5,0,0,0,29.1.321a.647.647,0,0,0-.971.485,1.445,1.445,0,0,0-1.222,1.222.653.653,0,0,0-.731,1.039,1.446,1.446,0,0,0-.585.622.686.686,0,0,0-.149-.019.655.655,0,0,0-.369,1.2,1.437,1.437,0,0,0-.557.261,1.444,1.444,0,0,0-2.175.515.679.679,0,0,0-.149-.019.655.655,0,0,0-.655.656s0,0,0,.007a1.449,1.449,0,0,0-1.294,1.339h-.005a.655.655,0,0,0-.655.655.645.645,0,0,0,.085.318A1.18,1.18,0,0,0,19,9.1a.64.64,0,0,0-.182-.029.655.655,0,0,0-.655.655c0,.022,0,.042.005.063a.65.65,0,0,0-.156,1.083,1.417,1.417,0,0,0-.115.129.652.652,0,0,0-.645,1.108.661.661,0,0,0-.023.165.654.654,0,0,0,.455.62s0,.007,0,.011a.653.653,0,0,0,.612.651.66.66,0,0,0-.04.215c0,.015,0,.03,0,.044a.645.645,0,0,0-.8.284c-.039,0-.078-.006-.118-.006a1.444,1.444,0,0,0-1.06.464.653.653,0,0,0-1.044.526.788.788,0,0,0,.009.093,1.33,1.33,0,0,0-.886.424.65.65,0,0,0-.488,1,.651.651,0,0,0,.107,1.2.653.653,0,0,0-.072.293.646.646,0,0,0,.107.356,1.446,1.446,0,0,0-1.139.8.672.672,0,0,0-.149-.019.656.656,0,0,0-.655.656c0,.007,0,.014,0,.022A1.447,1.447,0,0,0,11,21.92a1.447,1.447,0,0,0,.619,2.673.654.654,0,0,0,.89.486.583.583,0,0,0-.036.2.6.6,0,0,0,1.089.34,1.446,1.446,0,0,0,1.849.529.857.857,0,0,0,1.332.094,1.457,1.457,0,0,0,.6.131c.029,0,.056,0,.085,0a.652.652,0,0,0,1.217-.059,1.439,1.439,0,0,0,1.454.4.647.647,0,0,0,.783-.025,1.445,1.445,0,0,0,2.212-.152.654.654,0,0,0,1.012.1.466.466,0,0,0,.087-.035,1.446,1.446,0,0,0,2.306.261.647.647,0,0,0,.348.1l.029,0a1.44,1.44,0,0,0,1.709.509.651.651,0,0,0,.887.2l.07-.031a1.443,1.443,0,0,0,1.858.105.884.884,0,0,0,1,.012.654.654,0,0,0,.646.563.645.645,0,0,0,.221-.041C35.282,29.6,39,32.366,39,33.332a32.636,32.636,0,0,1-.479,5.107c-.41,1.627-2.251,2.121-3.407,2.272Zm41.388,0a1.94,1.94,0,0,1-1.388-1.282,59.449,59.449,0,0,1-.439-6.886,75.746,75.746,0,0,0,6.989-4.977.653.653,0,0,0,1.3-.05,1.438,1.438,0,0,0,1.654-.469,1.445,1.445,0,0,0,1.986.166.652.652,0,0,0,1.165-.178,1.445,1.445,0,0,0,.414-.18,1.445,1.445,0,0,0,1.764-.049,1.439,1.439,0,0,0,1.414-.2.425.425,0,0,0,.777.087.634.634,0,0,0,.616.02.657.657,0,0,0,.365.4V37.65a3.06,3.06,0,0,1-3.06,3.06ZM42.312,28.477a6.406,6.406,0,0,1,.484-1.136,1.41,1.41,0,0,0,.718-.014,1.018,1.018,0,0,0,1.575-.1,1.032,1.032,0,0,0,.26.038,1.02,1.02,0,0,0,.8-.394,1.443,1.443,0,0,0,1.436.034,1.022,1.022,0,0,0,.647.718c-1.822,1.078-4.636,2.762-5.7,2.88A3.745,3.745,0,0,1,42.312,28.477Zm-8.549-1.229a1.448,1.448,0,0,0,.437-.732l.032,0a.654.654,0,0,0,.516-.254.426.426,0,0,0,.553.222.638.638,0,0,0,.148.184.654.654,0,0,0,1.281-.188.279.279,0,0,0,0-.029,1.1,1.1,0,0,0,.608.182,1.239,1.239,0,0,0,.131-.008,10.022,10.022,0,0,1,1.085,3.5C38.031,29.9,35.074,28.135,33.763,27.248Zm6.551.877c-.422-.048-1.112-1.555-1.553-2.738a.654.654,0,0,0,.9-.608.691.691,0,0,0-.022-.163,1.432,1.432,0,0,0,.643.216.441.441,0,0,0-.01.092.426.426,0,0,0,.427.427.413.413,0,0,0,.1-.014,1.448,1.448,0,0,0,.8.838c-.351.9-.857,1.951-1.262,1.951ZM60.2,11.017a.4.4,0,0,0,.008-.075.428.428,0,0,0-.427-.428c-.009,0-.018,0-.027,0a1.056,1.056,0,0,0-.525-.578.5.5,0,0,0-.335-.791A.732.732,0,0,0,58.245,8a.643.643,0,0,0,.059-.269.655.655,0,0,0-.655-.655l-.025,0a.4.4,0,0,0-.448-.279A1.445,1.445,0,0,0,55.884,6a1.406,1.406,0,0,0-.256.024.425.425,0,0,0-.361-.653.416.416,0,0,0-.183.042,1.14,1.14,0,0,0-.961-.527,1.1,1.1,0,0,0-.182.015s0-.005,0-.008a.426.426,0,0,0-.68-.343,1.121,1.121,0,0,0-.943-.516,1.137,1.137,0,0,0-.23.023.656.656,0,0,0-.595-.383.7.7,0,0,0-.087.009c0-.022.007-.043.007-.065a1.007,1.007,0,0,0-.771-.977,1.447,1.447,0,0,0-1-.924.735.735,0,0,0,.01-.1.651.651,0,0,0-.934-.591A1.445,1.445,0,0,0,47.435.623a1.187,1.187,0,0,0-.2-.623H58.005a3.06,3.06,0,0,1,3.06,3.06v8.286A1.444,1.444,0,0,0,60.2,11.017Z" fill="#3c4f76"/>
</svg>
