<svg width="150" height="37" viewBox="0 0 150 37" fill="none" xmlns="http://www.w3.org/2000/svg">
<g clip-path="url(#clip0_2651_1099)">
<path d="M80.5673 34.718C80.4293 36.1031 79.5473 36.6393 78.719 36.6393C78.2117 36.6393 77.7008 36.4892 77.344 36.096C76.9568 35.6778 76.7094 34.9772 76.7094 33.8065C76.7094 32.8431 76.9102 32.1139 77.3297 31.651C77.6721 31.281 78.1328 31.0773 78.7226 31.0773C79.576 31.0773 80.4024 31.5116 80.5207 32.9397L79.2748 32.9951C79.2031 32.2641 79.0597 31.9531 78.7137 31.9531C78.3121 31.9531 78.0324 32.4285 78.0324 33.8726C78.0324 35.331 78.33 35.7671 78.7083 35.7671C79.083 35.7671 79.2586 35.3507 79.3017 34.6465L80.5673 34.7198V34.718Z" fill="#002850"/>
<path d="M84.0453 34.3588H83.2851L83.4662 33.1541C83.52 32.7967 83.5809 32.4321 83.6347 31.9495H83.6921C83.7477 32.4285 83.805 32.7788 83.8624 33.1488L84.0435 34.3606L84.0453 34.3588ZM84.1654 35.2345L84.3554 36.5339H85.6713L84.5419 31.1828H82.7921L81.6627 36.5339H82.9786L83.1668 35.2345H84.1672H84.1654Z" fill="#002850"/>
<path d="M88.2205 33.7672V32.055H88.6562C89.081 32.055 89.3464 32.2551 89.3464 32.8825C89.3464 33.5616 89.1061 33.7672 88.6239 33.7672H88.2205ZM88.2205 36.5339V34.6394H88.6759C89.8985 34.6394 90.6694 34.1264 90.6694 32.8718C90.6694 31.803 90.0742 31.1828 88.6759 31.1828H86.9315V36.5339H88.2223H88.2205Z" fill="#002850"/>
<path d="M92.1215 36.5339V31.1828H93.4302V36.5339H92.1215Z" fill="#002850"/>
<path d="M98.2867 32.0514H97.2075V36.5339H95.9167V32.0514H94.8357V31.181H98.2867V32.0514Z" fill="#002850"/>
<path d="M101.426 34.3588H100.666L100.847 33.1541C100.901 32.7967 100.962 32.4321 101.015 31.9495H101.073C101.128 32.4285 101.186 32.7788 101.243 33.1488L101.424 34.3606L101.426 34.3588ZM101.546 35.2345L101.736 36.5339H103.052L101.922 31.1828H100.173L99.0433 36.5339H100.359L100.547 35.2345H101.548H101.546Z" fill="#002850"/>
<path d="M107.498 36.5339H104.375V31.1828H105.666V35.6706H107.498V36.5339Z" fill="#002850"/>
<path d="M113.089 33.7672V32.055H113.525C113.95 32.055 114.215 32.2551 114.215 32.8825C114.215 33.5616 113.975 33.7672 113.493 33.7672H113.089ZM113.089 36.5339V34.6394H113.545C114.767 34.6394 115.538 34.1264 115.538 32.8718C115.538 31.803 114.943 31.1828 113.545 31.1828H111.799V36.5339H113.089Z" fill="#002850"/>
<path d="M118.78 34.3588H118.019L118.2 33.1541C118.254 32.7967 118.315 32.4321 118.369 31.9495H118.426C118.482 32.4285 118.539 32.7788 118.597 33.1488L118.778 34.3606L118.78 34.3588ZM118.9 35.2345L119.09 36.5339H120.406L119.276 31.1828H117.526L116.397 36.5339H117.713L117.901 35.2345H118.901H118.9Z" fill="#002850"/>
<path d="M122.935 33.6689V32.0568H123.286C123.765 32.0568 123.959 32.3338 123.959 32.8807C123.959 33.4365 123.735 33.6689 123.317 33.6689H122.935ZM124.296 34.3159C124.8 34.1783 125.282 33.7797 125.282 32.8521C125.282 31.4687 124.186 31.1828 123.252 31.1828H121.65V36.5339H122.94V34.5232H123.191L124.093 36.5339H125.579L124.296 34.3159Z" fill="#002850"/>
<path d="M130.009 32.0514H128.93V36.5339H127.639V32.0514H126.558V31.181H130.009V32.0514Z" fill="#002850"/>
<path d="M134.124 34.8789C134.084 34.2569 134.054 33.0022 134.054 31.1828H135.201V36.5339H133.552C132.949 34.6912 132.578 33.4437 132.446 32.8378H132.404C132.438 33.4508 132.471 34.7019 132.471 36.5339H131.323V31.1828H132.978C133.577 33.0058 133.95 34.2658 134.086 34.8789H134.125H134.124Z" fill="#002850"/>
<path d="M139.425 33.3507V34.2158H138.082V35.6706H139.943V36.5357H136.791V31.1845H139.896V32.0496H138.082V33.3543H139.425V33.3507Z" fill="#002850"/>
<path d="M142.702 33.6689V32.0568H143.053C143.53 32.0568 143.725 32.3338 143.725 32.8807C143.725 33.4365 143.501 33.6689 143.084 33.6689H142.702ZM144.061 34.3159C144.564 34.1783 145.047 33.7797 145.047 32.8521C145.047 31.4687 143.951 31.1828 143.017 31.1828H141.415V36.5339H142.705V34.5232H142.956L143.858 36.5339H145.344L144.061 34.3159Z" fill="#002850"/>
<path d="M148.681 32.4517C148.629 32.189 148.516 31.9441 148.229 31.9441C148.101 31.9441 147.978 32.0031 147.901 32.0853C147.833 32.1586 147.8 32.2694 147.8 32.3802C147.8 32.5911 147.892 32.7877 148.109 32.9486C148.313 33.1077 148.455 33.2024 148.786 33.399C149.129 33.6242 149.383 33.7886 149.573 33.996C149.794 34.2372 150 34.5768 150 35.054C150 35.4204 149.878 35.8154 149.572 36.1175C149.294 36.3891 148.86 36.6411 148.173 36.6411C146.974 36.6411 146.459 36.0388 146.38 35.2238L147.637 35.1863C147.693 35.5187 147.829 35.7743 148.159 35.7743C148.36 35.7743 148.492 35.676 148.571 35.5848C148.646 35.4955 148.679 35.3543 148.679 35.2274C148.679 34.995 148.593 34.8395 148.44 34.6948C148.297 34.575 148.119 34.4535 147.784 34.2265C147.424 33.9995 147.124 33.7708 146.922 33.5384C146.71 33.3078 146.513 32.9629 146.513 32.4768C146.513 32.0943 146.646 31.744 146.94 31.5009C147.23 31.2453 147.652 31.0791 148.245 31.0791C149.292 31.0791 149.806 31.6618 149.887 32.4303L148.684 32.4553L148.681 32.4517Z" fill="#002850"/>
<path d="M65.7988 15.519C64.5116 14.7558 63.963 14.3876 63.1689 13.7728C62.3316 13.1455 61.9749 12.3859 61.9749 11.5655C61.9749 11.1366 62.0986 10.7041 62.3657 10.4217C62.6687 10.1017 63.1473 9.87654 63.6386 9.87654C64.725 9.87654 65.1695 10.7755 65.3793 11.7657C65.3883 11.8122 65.4295 11.8461 65.4779 11.8443L69.9544 11.7496C70.0135 11.7496 70.0583 11.696 70.0512 11.6388C69.7016 8.71302 67.7063 6.50751 63.6923 6.50751C61.3923 6.50751 59.7555 7.15272 58.6297 8.14287C57.4931 9.09013 56.9767 10.4449 56.9767 11.9301C56.9767 13.8175 57.744 15.1526 58.5633 16.0498C59.3539 16.9506 60.5174 17.8335 61.9121 18.7182C63.2083 19.5976 63.9003 20.0712 64.4542 20.5359C64.456 20.5359 64.4578 20.5395 64.4596 20.5413C65.0494 21.0953 65.3811 21.6994 65.3811 22.602C65.3811 23.0971 65.2556 23.644 64.9652 23.9925C64.664 24.3464 64.1459 24.7253 63.3678 24.7253C62.1201 24.7253 61.5877 23.778 61.3618 22.5305C61.3528 22.4823 61.3116 22.4483 61.2614 22.4483L56.5805 22.5913C56.5232 22.5913 56.4784 22.6449 56.4837 22.7021C56.8226 25.8138 58.8286 28.0943 63.427 28.0943C66.0892 28.0943 67.7708 27.1167 68.85 26.0622C70.0386 24.8897 70.5101 23.3562 70.5101 21.9389C70.5101 20.0855 69.707 18.7701 68.85 17.8353C68.1132 17.031 67.1236 16.393 65.797 15.5208L65.7988 15.519Z" fill="#002850"/>
<path d="M78.0235 25.1828C77.0984 25.1828 76.6413 24.1963 76.5373 21.4421C76.5355 21.3867 76.5803 21.3384 76.6359 21.3384H84.065C84.1206 21.3384 84.1654 21.2937 84.1654 21.2383C84.1546 18.2714 83.676 16.0463 82.2149 14.3751C81.089 13.1312 79.5724 12.6486 77.9231 12.6486C76.0066 12.6486 74.5868 13.2706 73.5631 14.3162C72.2401 15.6745 71.6557 17.8192 71.6557 20.2607C71.6557 23.2579 72.3943 25.1221 73.4914 26.3053C74.7195 27.6296 76.4064 28.0121 77.9464 28.0121C79.8377 28.0121 81.2307 27.4456 82.2633 26.5501C83.2977 25.6368 83.8606 24.5644 84.1421 23.5493C84.16 23.4867 84.1116 23.426 84.0471 23.4242L79.4326 23.3527C79.3842 23.3527 79.3429 23.3866 79.334 23.4331C79.1314 24.5055 78.7441 25.1793 78.0253 25.1793L78.0235 25.1828ZM77.9249 15.4797C78.6724 15.4797 79.1403 16.443 79.2766 18.8344C79.2802 18.8916 79.2336 18.9399 79.178 18.9399H76.6359C76.5785 18.9399 76.5337 18.8916 76.5373 18.8344C76.6556 16.1964 77.24 15.4779 77.9267 15.4779L77.9249 15.4797Z" fill="#002850"/>
<path d="M94.5883 12.6486C93.7977 12.6486 93.0322 12.8363 92.394 13.1223C91.7594 13.41 91.1534 13.7996 90.5654 14.2268H90.4059L90.4399 13.0829C90.4399 13.0275 90.3969 12.9811 90.3413 12.9811H85.7824C85.7268 12.9811 85.6838 13.0257 85.6838 13.0794V27.585C85.6838 27.6404 85.7286 27.6833 85.7824 27.6833H90.3431C90.3987 27.6833 90.4417 27.6386 90.4417 27.585V17.771C90.4417 17.7477 90.4507 17.7227 90.4668 17.7049C90.8128 17.3063 91.1803 16.9864 91.5156 16.7719C91.8185 16.586 92.1896 16.4555 92.541 16.4555C92.9946 16.4555 93.2635 16.6557 93.4464 16.9828C93.6937 17.4528 93.7583 18.3286 93.7583 19.5726V27.5868C93.7583 27.6422 93.8031 27.685 93.8569 27.685H98.4176C98.4732 27.685 98.5162 27.6404 98.5162 27.5868V17.771C98.5162 15.9462 98.1648 14.6522 97.5481 13.8568C96.9153 13.0758 95.9132 12.6504 94.5883 12.6504V12.6486Z" fill="#002850"/>
<path d="M109.891 11.1705H114.452C114.507 11.1705 114.55 11.1294 114.55 11.0794V7.57452C114.55 7.52448 114.506 7.48337 114.452 7.48337H109.891C109.836 7.48337 109.793 7.52448 109.793 7.57452V11.0794C109.793 11.1294 109.837 11.1705 109.891 11.1705Z" fill="#002850"/>
<path d="M114.454 13.015H109.891C109.837 13.015 109.793 13.059 109.793 13.1133V27.585C109.793 27.6393 109.837 27.6833 109.891 27.6833H114.454C114.508 27.6833 114.552 27.6393 114.552 27.585V13.1133C114.552 13.059 114.508 13.015 114.454 13.015Z" fill="#002850"/>
<path d="M125.581 12.6486C124.789 12.6486 124.025 12.8363 123.385 13.1223C122.75 13.41 122.144 13.7996 121.556 14.2268H121.397L121.431 13.0829C121.431 13.0275 121.388 12.9811 121.332 12.9811H116.773C116.718 12.9811 116.675 13.0257 116.675 13.0794V27.585C116.675 27.6404 116.72 27.6833 116.773 27.6833H121.334C121.39 27.6833 121.433 27.6386 121.433 27.585V17.771C121.433 17.7477 121.442 17.7227 121.458 17.7049C121.804 17.3063 122.171 16.9864 122.507 16.7719C122.81 16.586 123.181 16.4555 123.532 16.4555C123.986 16.4555 124.255 16.6557 124.437 16.9828C124.685 17.4528 124.749 18.3286 124.749 19.5726V27.5868C124.749 27.6422 124.794 27.685 124.848 27.685H129.409C129.464 27.685 129.507 27.6404 129.507 27.5868V17.771C129.507 15.9462 129.156 14.6522 128.539 13.8568C127.906 13.0758 126.906 12.6504 125.579 12.6504L125.581 12.6486Z" fill="#002850"/>
<path d="M137.304 25.1828C136.379 25.1828 135.922 24.1963 135.818 21.4421C135.816 21.3867 135.861 21.3384 135.916 21.3384H143.345C143.401 21.3384 143.446 21.2937 143.446 21.2383C143.435 18.2714 142.956 16.0463 141.495 14.3751C140.369 13.1312 138.853 12.6486 137.203 12.6486C135.287 12.6486 133.867 13.2706 132.844 14.3162C131.521 15.6745 130.936 17.8192 130.936 20.2607C130.936 23.2579 131.675 25.1221 132.772 26.3053C134 27.6296 135.687 28.0121 137.227 28.0121C139.118 28.0121 140.511 27.4456 141.544 26.5501C142.578 25.6368 143.141 24.5644 143.422 23.5493C143.44 23.4867 143.392 23.426 143.327 23.4242L138.713 23.3527C138.665 23.3527 138.623 23.3866 138.614 23.4331C138.412 24.5055 138.025 25.1793 137.306 25.1793L137.304 25.1828ZM137.205 15.4797C137.953 15.4797 138.421 16.443 138.557 18.8344C138.561 18.8916 138.514 18.9399 138.458 18.9399H135.916C135.859 18.9399 135.814 18.8916 135.818 18.8344C135.936 16.1964 136.52 15.4779 137.207 15.4779L137.205 15.4797Z" fill="#002850"/>
<path d="M149.792 7.46371H145.23C145.175 7.46371 145.131 7.50773 145.131 7.56202V27.585C145.131 27.6393 145.175 27.6833 145.23 27.6833H149.792C149.846 27.6833 149.891 27.6393 149.891 27.585V7.56202C149.891 7.50773 149.846 7.46371 149.792 7.46371Z" fill="#002850"/>
<path d="M108.116 24.2928C108.115 24.2088 108.045 24.1498 107.96 24.1605C107.95 24.1605 107.937 24.1623 107.926 24.1641C107.926 24.1641 107.838 24.1802 107.338 24.2213C106.958 24.2535 106.813 24.2463 106.765 24.2427C106.705 24.2392 106.648 24.2302 106.593 24.2213C106.593 24.2213 106.591 24.2213 106.589 24.2213C106.252 24.157 106.004 23.9657 105.881 23.6583C105.854 23.5922 105.838 23.5368 105.832 23.5046C105.814 23.4313 105.802 23.3509 105.795 23.2669C105.795 23.2633 105.795 23.2597 105.795 23.2562C105.743 22.854 105.727 22.3518 105.727 21.737V16.116C105.727 16.0605 105.771 16.0177 105.825 16.0177H107.541C107.596 16.0177 107.639 15.973 107.639 15.9194V13.0811C107.639 13.0257 107.595 12.9828 107.541 12.9828H105.825C105.77 12.9828 105.727 12.9382 105.727 12.8845V9.42972C105.727 9.37432 105.682 9.33142 105.628 9.33142H101.067C101.012 9.33142 100.969 9.3761 100.969 9.42972V12.8845C100.969 12.9399 100.924 12.9828 100.87 12.9828H99.8034C99.7478 12.9828 99.7048 13.0275 99.7048 13.0811V15.9194C99.7048 15.9748 99.7496 16.0177 99.8034 16.0177H100.87C100.926 16.0177 100.969 16.0623 100.969 16.116V22.7039C100.969 25.0256 101.614 26.4786 102.876 27.2257H102.874C102.894 27.2382 102.916 27.249 102.935 27.2615C102.957 27.274 102.978 27.2865 103 27.2972C103.229 27.4259 103.487 27.5278 103.765 27.6082C103.808 27.6207 103.853 27.6332 103.896 27.6439C103.928 27.6529 103.961 27.6618 103.993 27.669C104.283 27.7405 104.595 27.7887 104.927 27.8155C104.932 27.8155 104.938 27.8155 104.943 27.8155C105.031 27.8227 105.121 27.828 105.212 27.8316C105.232 27.8316 105.252 27.8352 105.271 27.8352C105.752 27.8548 106.223 27.862 106.637 27.8441C107.449 27.8084 108.041 27.7172 108.041 27.7172C108.125 27.7065 108.192 27.6296 108.19 27.5456C108.165 26.4608 108.141 25.3759 108.116 24.291V24.2928Z" fill="#002850"/>
<path d="M50.7252 15.4939C50.0851 13.0685 47.7044 11.2973 44.1906 10.2696C44.0365 10.225 43.8823 10.3411 43.8823 10.5002V12.434C43.8823 12.6539 43.9898 12.8594 44.1745 12.9809C45.4115 13.7888 46.2433 14.8076 46.5624 16.0175C47.2204 18.5162 45.5764 21.3705 42.371 23.9888C42.285 24.0585 42.1559 23.9978 42.1559 23.887V0.328755C42.1559 0.00883099 41.7453 -0.121641 41.5589 0.137516L22.1956 27.1094C22.0306 27.3382 22.1956 27.6563 22.477 27.6563L36.0068 27.6403C36.1359 27.6403 36.1771 27.8154 36.0606 27.8708C33.6798 28.9968 30.9925 29.978 28.1008 30.7358C16.5592 33.7599 6.11292 32.0745 4.76658 26.97C3.82539 23.4026 7.58297 19.1095 13.8701 15.8156C13.9938 15.7512 14.1014 15.6583 14.182 15.5457L15.2487 14.0551C15.4101 13.8299 15.1716 13.535 14.9153 13.6422C5.12871 17.7351 -1.12614 23.8262 0.168211 28.7412C1.77629 34.8377 14.3954 36.8144 28.3572 33.1576C42.3172 29.499 52.3314 21.5921 50.7252 15.4939Z" fill="#002850"/>
<path d="M22.1582 7.38862L8.04759 27.1453C7.90238 27.349 8.04759 27.6314 8.29857 27.6314H19.2683C19.6143 27.6314 19.9406 27.4634 20.1414 27.1828L34.2502 7.42794C34.3954 7.22419 34.2502 6.9418 33.9992 6.9418H23.0295C22.6835 6.9418 22.359 7.10802 22.1582 7.38862Z" fill="#CD0F28"/>
</g>
<defs>
<clipPath id="clip0_2651_1099">
<rect width="150" height="36.6393" fill="white"/>
</clipPath>
</defs>
</svg>
